<?xml version="1.0" encoding="UTF-8"?>
<!--Generator: Apple Native CoreSVG 341-->
<!DOCTYPE svg
PUBLIC "-//W3C//DTD SVG 1.1//EN"
       "http://www.w3.org/Graphics/SVG/1.1/DTD/svg11.dtd">
<svg version="1.1" xmlns="http://www.w3.org/2000/svg" xmlns:xlink="http://www.w3.org/1999/xlink" viewBox="0 0 3300 2200">
 <!--glyph: "", point size: 100.0, font version: "21.1d1e1", template writer version: "138.0.0"-->
 <style>.defaults {-sfsymbols-variable-value-mode:color;-sfsymbols-draw-reverses-motion-groups:true}

.monochrome-0 {-sfsymbols-motion-group:0;-sfsymbols-layer-tags:54423cbeb51ec9c4}

.multicolor-0:systemRedColor {-sfsymbols-motion-group:0;-sfsymbols-layer-tags:54423cbeb51ec9c4}

.hierarchical-0:primary {-sfsymbols-motion-group:0;-sfsymbols-layer-tags:54423cbeb51ec9c4}

.SFSymbolsPreviewWireframe {fill:none;opacity:1.0;stroke:black;stroke-width:0.5}
</style>
 <g id="Notes">
  <rect height="2200" id="artboard" style="fill:white;opacity:1" width="3300" x="0" y="0"/>
  <line style="fill:none;stroke:black;opacity:1;stroke-width:0.5;" x1="263" x2="3036" y1="292" y2="292"/>
  <text style="stroke:none;fill:black;font-family:sans-serif;font-size:13;font-weight:bold;" transform="matrix(1 0 0 1 263 322)">Weight/Scale Variations</text>
  <text style="stroke:none;fill:black;font-family:sans-serif;font-size:13;text-anchor:middle;" transform="matrix(1 0 0 1 559.711 322)">Ultralight</text>
  <text style="stroke:none;fill:black;font-family:sans-serif;font-size:13;text-anchor:middle;" transform="matrix(1 0 0 1 856.422 322)">Thin</text>
  <text style="stroke:none;fill:black;font-family:sans-serif;font-size:13;text-anchor:middle;" transform="matrix(1 0 0 1 1153.13 322)">Light</text>
  <text style="stroke:none;fill:black;font-family:sans-serif;font-size:13;text-anchor:middle;" transform="matrix(1 0 0 1 1449.84 322)">Regular</text>
  <text style="stroke:none;fill:black;font-family:sans-serif;font-size:13;text-anchor:middle;" transform="matrix(1 0 0 1 1746.56 322)">Medium</text>
  <text style="stroke:none;fill:black;font-family:sans-serif;font-size:13;text-anchor:middle;" transform="matrix(1 0 0 1 2043.27 322)">Semibold</text>
  <text style="stroke:none;fill:black;font-family:sans-serif;font-size:13;text-anchor:middle;" transform="matrix(1 0 0 1 2339.98 322)">Bold</text>
  <text style="stroke:none;fill:black;font-family:sans-serif;font-size:13;text-anchor:middle;" transform="matrix(1 0 0 1 2636.69 322)">Heavy</text>
  <text style="stroke:none;fill:black;font-family:sans-serif;font-size:13;text-anchor:middle;" transform="matrix(1 0 0 1 2933.4 322)">Black</text>
  <line style="fill:none;stroke:black;opacity:1;stroke-width:0.5;" x1="263" x2="3036" y1="1903" y2="1903"/>
  <g transform="matrix(0.2 0 0 0.2 263 1933)">
   <path d="m46.2402 4.15039c21.7773 0 39.4531-17.627 39.4531-39.4043s-17.6758-39.4043-39.4531-39.4043c-21.7285 0-39.4043 17.627-39.4043 39.4043s17.6758 39.4043 39.4043 39.4043Zm0-7.42188c-17.6758 0-31.9336-14.3066-31.9336-31.9824s14.2578-31.9824 31.9336-31.9824 31.9824 14.3066 31.9824 31.9824-14.3066 31.9824-31.9824 31.9824Zm3.61328-17.7734v-28.4668c0-2.24609-1.46484-3.75977-3.71094-3.75977-2.14844 0-3.61328 1.51367-3.61328 3.75977v28.4668c0 2.19727 1.46484 3.71094 3.61328 3.71094 2.24609 0 3.71094-1.51367 3.71094-3.71094Zm-17.8223-10.5957h28.418c2.19727 0 3.71094-1.46484 3.71094-3.61328 0-2.19727-1.51367-3.71094-3.71094-3.71094h-28.418c-2.24609 0-3.75977 1.51367-3.75977 3.71094 0 2.14844 1.51367 3.61328 3.75977 3.61328Z"/>
  </g>
  <g transform="matrix(0.2 0 0 0.2 281.506 1933)">
   <path d="m58.5449 14.5508c27.4902 0 49.8047-22.3145 49.8047-49.8047s-22.3145-49.8047-49.8047-49.8047-49.8047 22.3145-49.8047 49.8047 22.3145 49.8047 49.8047 49.8047Zm0-8.30078c-22.9492 0-41.5039-18.5547-41.5039-41.5039s18.5547-41.5039 41.5039-41.5039 41.5039 18.5547 41.5039 41.5039-18.5547 41.5039-41.5039 41.5039Zm4.05273-23.0957v-36.9141c0-2.49023-1.70898-4.19922-4.15039-4.19922-2.39258 0-4.05273 1.70898-4.05273 4.19922v36.9141c0 2.44141 1.66016 4.15039 4.05273 4.15039 2.44141 0 4.15039-1.66016 4.15039-4.15039Zm-22.5586-14.4043h36.9629c2.44141 0 4.15039-1.61133 4.15039-4.00391 0-2.44141-1.70898-4.15039-4.15039-4.15039h-36.9629c-2.49023 0-4.15039 1.70898-4.15039 4.15039 0 2.39258 1.66016 4.00391 4.15039 4.00391Z"/>
  </g>
  <g transform="matrix(0.2 0 0 0.2 304.924 1933)">
   <path d="m74.8535 28.3203c35.1074 0 63.623-28.4668 63.623-63.5742s-28.5156-63.623-63.623-63.623-63.5742 28.5156-63.5742 63.623 28.4668 63.5742 63.5742 63.5742Zm0-9.08203c-30.127 0-54.4922-24.3652-54.4922-54.4922s24.3652-54.4922 54.4922-54.4922 54.4922 24.3652 54.4922 54.4922-24.3652 54.4922-54.4922 54.4922Zm4.44336-30.3223v-48.4863c0-2.73438-1.85547-4.63867-4.54102-4.63867-2.58789 0-4.44336 1.9043-4.44336 4.63867v48.4863c0 2.68555 1.85547 4.58984 4.44336 4.58984 2.68555 0 4.54102-1.85547 4.54102-4.58984Zm-28.7109-19.7754h48.4863c2.68555 0 4.58984-1.80664 4.58984-4.39453 0-2.73438-1.85547-4.58984-4.58984-4.58984h-48.4863c-2.73438 0-4.58984 1.85547-4.58984 4.58984 0 2.58789 1.85547 4.39453 4.58984 4.39453Z"/>
  </g>
  <text style="stroke:none;fill:black;font-family:sans-serif;font-size:13;font-weight:bold;" transform="matrix(1 0 0 1 263 1953)">Design Variations</text>
  <text style="stroke:none;fill:black;font-family:sans-serif;font-size:13;" transform="matrix(1 0 0 1 263 1971)">Symbols are supported in up to nine weights and three scales.</text>
  <text style="stroke:none;fill:black;font-family:sans-serif;font-size:13;" transform="matrix(1 0 0 1 263 1989)">For optimal layout with text and other symbols, vertically align</text>
  <text style="stroke:none;fill:black;font-family:sans-serif;font-size:13;" transform="matrix(1 0 0 1 263 2007)">symbols with the adjacent text.</text>
  <line style="fill:none;stroke:#00AEEF;stroke-width:0.5;opacity:1.0;" x1="776" x2="776" y1="1919" y2="1933"/>
  <g transform="matrix(0.2 0 0 0.2 776 1933)">
   <path d="m16.5527 0.78125c2.58789 0 3.85742-0.976562 4.78516-3.71094l20.5566-57.5195h0.244141l20.6055 57.5195c0.927734 2.73438 2.19727 3.71094 4.73633 3.71094 2.58789 0 4.24805-1.5625 4.24805-4.00391 0-0.830078-0.146484-1.61133-0.537109-2.63672l-22.9004-60.9863c-1.12305-2.97852-3.125-4.49219-6.25-4.49219-3.02734 0-5.07812 1.46484-6.15234 4.44336l-22.9004 61.084c-0.390625 1.02539-0.537109 1.80664-0.537109 2.63672 0 2.44141 1.5625 3.95508 4.10156 3.95508Zm10.2051-20.9473h30.6641c2.00195 0 3.66211-1.66016 3.66211-3.66211 0-2.05078-1.66016-3.66211-3.66211-3.66211h-30.6641c-2.00195 0-3.66211 1.61133-3.66211 3.66211 0 2.00195 1.66016 3.66211 3.66211 3.66211Z"/>
  </g>
  <line style="fill:none;stroke:#00AEEF;stroke-width:0.5;opacity:1.0;" x1="792.836" x2="792.836" y1="1919" y2="1933"/>
  <text style="stroke:none;fill:black;font-family:sans-serif;font-size:13;font-weight:bold;" transform="matrix(1 0 0 1 776 1953)">Margins</text>
  <text style="stroke:none;fill:black;font-family:sans-serif;font-size:13;" transform="matrix(1 0 0 1 776 1971)">Leading and trailing margins on the left and right side of each symbol</text>
  <text style="stroke:none;fill:black;font-family:sans-serif;font-size:13;" transform="matrix(1 0 0 1 776 1989)">can be adjusted by modifying the x-location of the margin guidelines.</text>
  <text style="stroke:none;fill:black;font-family:sans-serif;font-size:13;" transform="matrix(1 0 0 1 776 2007)">Modifications are automatically applied proportionally to all</text>
  <text style="stroke:none;fill:black;font-family:sans-serif;font-size:13;" transform="matrix(1 0 0 1 776 2025)">scales and weights.</text>
  <g transform="matrix(0.2 0 0 0.2 1289 1933)">
   <path d="m14.209 13.1348 7.86133 7.86133c4.29688 4.39453 9.32617 4.10156 13.8672-1.02539l60.6934-68.2129-4.88281-4.88281-60.2539 67.6758c-1.80664 1.95312-3.4668 2.44141-5.81055 0.0976562l-5.17578-5.12695c-2.29492-2.29492-1.80664-3.95508 0.195312-5.81055l67.4805-62.1582-4.88281-4.83398-68.0664 62.5977c-4.98047 4.58984-5.32227 9.47266-1.02539 13.8184Zm44.873-97.4609c-2.05078 2.00195-2.24609 4.88281-1.07422 6.78711 1.12305 1.80664 3.4668 3.02734 6.5918 2.24609 5.85938-1.66016 12.5977-2.39258 18.8965 0.927734l-2.68555 7.12891c-1.61133 4.00391-0.732422 6.88477 1.70898 9.42383l10.2539 10.3027c2.34375 2.39258 4.54102 2.44141 7.08008 1.95312l4.44336-0.732422 2.58789 2.53906-0.195312 2.24609c-0.0976562 2.29492 0.537109 4.29688 2.7832 6.49414l3.36914 3.32031c2.29492 2.29492 5.51758 2.49023 7.8125 0.195312l12.9883-13.0371c2.29492-2.34375 2.14844-5.37109-0.195312-7.66602l-3.41797-3.41797c-2.19727-2.19727-4.05273-3.02734-6.34766-2.88086l-2.34375 0.244141-2.44141-2.44141 1.02539-4.6875c0.634766-2.73438-0.244141-4.98047-2.88086-7.61719l-11.2793-11.1816c-12.9395-12.8418-35.5957-11.0352-46.6797-0.146484Zm7.08008 2.05078c8.78906-6.39648 25.9766-5.66406 33.6914 1.95312l12.3047 12.207c1.02539 1.02539 1.2207 1.80664 0.927734 3.32031l-1.46484 6.64062 6.73828 6.68945 4.39453-0.244141c1.12305-0.0488281 1.51367 0.0488281 2.34375 0.878906l2.53906 2.49023-10.8398 10.8398-2.49023-2.49023c-0.830078-0.878906-0.976562-1.2207-0.927734-2.39258l0.292969-4.3457-6.68945-6.73828-6.83594 1.17188c-1.41602 0.292969-2.05078 0.195312-3.17383-0.878906l-8.93555-8.88672c-1.07422-1.02539-1.17188-1.70898-0.488281-3.36914l4.58984-11.4746c-6.10352-6.34766-17.041-7.51953-25.5859-4.58984-0.683594 0.244141-0.927734-0.390625-0.390625-0.78125Z"/>
  </g>
  <text style="stroke:none;fill:black;font-family:sans-serif;font-size:13;font-weight:bold;" transform="matrix(1 0 0 1 1289 1953)">Exporting</text>
  <text style="stroke:none;fill:black;font-family:sans-serif;font-size:13;" transform="matrix(1 0 0 1 1289 1971)">Symbols should be outlined when exporting to ensure the</text>
  <text style="stroke:none;fill:black;font-family:sans-serif;font-size:13;" transform="matrix(1 0 0 1 1289 1989)">design is preserved when submitting to Xcode.</text>
  <text id="template-version" style="stroke:none;fill:black;font-family:sans-serif;font-size:13;text-anchor:end;" transform="matrix(1 0 0 1 3036 1933)">Template v.7.0</text>
  <text style="stroke:none;fill:black;font-family:sans-serif;font-size:13;text-anchor:end;" transform="matrix(1 0 0 1 3036 1951)">Requires Xcode 26 or greater</text>
  <text id="descriptive-name" style="stroke:none;fill:black;font-family:sans-serif;font-size:13;text-anchor:end;" transform="matrix(1 0 0 1 3036 1969)">Generated from mich.plate</text>
  <text style="stroke:none;fill:black;font-family:sans-serif;font-size:13;text-anchor:end;" transform="matrix(1 0 0 1 3036 1987)">Typeset at 100.0 points</text>
  <text style="stroke:none;fill:black;font-family:sans-serif;font-size:13;" transform="matrix(1 0 0 1 263 726)">Small</text>
  <text style="stroke:none;fill:black;font-family:sans-serif;font-size:13;" transform="matrix(1 0 0 1 263 1156)">Medium</text>
  <text style="stroke:none;fill:black;font-family:sans-serif;font-size:13;" transform="matrix(1 0 0 1 263 1586)">Large</text>
 </g>
 <g id="Guides">
  <g id="H-reference" style="fill:#27AAE1;stroke:none;" transform="matrix(1 0 0 1 339 696)">
   <path d="M0.993654 0L3.63775 0L29.3281-67.1323L30.0303-67.1323L30.0303-70.459L28.1226-70.459ZM11.6885-24.4799L46.9815-24.4799L46.2315-26.7285L12.4385-26.7285ZM55.1196 0L57.7637 0L30.6382-70.459L29.4326-70.459L29.4326-67.1323Z"/>
  </g>
  <line id="Baseline-S" style="fill:none;stroke:#27AAE1;opacity:1;stroke-width:0.5;" x1="263" x2="3036" y1="696" y2="696"/>
  <line id="Capline-S" style="fill:none;stroke:#27AAE1;opacity:1;stroke-width:0.5;" x1="263" x2="3036" y1="625.541" y2="625.541"/>
  <g id="H-reference" style="fill:#27AAE1;stroke:none;" transform="matrix(1 0 0 1 339 1126)">
   <path d="M0.993654 0L3.63775 0L29.3281-67.1323L30.0303-67.1323L30.0303-70.459L28.1226-70.459ZM11.6885-24.4799L46.9815-24.4799L46.2315-26.7285L12.4385-26.7285ZM55.1196 0L57.7637 0L30.6382-70.459L29.4326-70.459L29.4326-67.1323Z"/>
  </g>
  <line id="Baseline-M" style="fill:none;stroke:#27AAE1;opacity:1;stroke-width:0.5;" x1="263" x2="3036" y1="1126" y2="1126"/>
  <line id="Capline-M" style="fill:none;stroke:#27AAE1;opacity:1;stroke-width:0.5;" x1="263" x2="3036" y1="1055.54" y2="1055.54"/>
  <g id="H-reference" style="fill:#27AAE1;stroke:none;" transform="matrix(1 0 0 1 339 1556)">
   <path d="M0.993654 0L3.63775 0L29.3281-67.1323L30.0303-67.1323L30.0303-70.459L28.1226-70.459ZM11.6885-24.4799L46.9815-24.4799L46.2315-26.7285L12.4385-26.7285ZM55.1196 0L57.7637 0L30.6382-70.459L29.4326-70.459L29.4326-67.1323Z"/>
  </g>
  <line id="Baseline-L" style="fill:none;stroke:#27AAE1;opacity:1;stroke-width:0.5;" x1="263" x2="3036" y1="1556" y2="1556"/>
  <line id="Capline-L" style="fill:none;stroke:#27AAE1;opacity:1;stroke-width:0.5;" x1="263" x2="3036" y1="1485.54" y2="1485.54"/>
  <line id="right-margin-Black-S" style="fill:none;stroke:#00AEEF;stroke-width:0.5;opacity:1.0;" x1="2986.13" x2="2986.13" y1="600.785" y2="720.121"/>
  <line id="left-margin-Black-S" style="fill:none;stroke:#00AEEF;stroke-width:0.5;opacity:1.0;" x1="2880.67" x2="2880.67" y1="600.785" y2="720.121"/>
  <line id="right-margin-Regular-S" style="fill:none;stroke:#00AEEF;stroke-width:0.5;opacity:1.0;" x1="1499.75" x2="1499.75" y1="600.785" y2="720.121"/>
  <line id="left-margin-Regular-S" style="fill:none;stroke:#00AEEF;stroke-width:0.5;opacity:1.0;" x1="1399.94" x2="1399.94" y1="600.785" y2="720.121"/>
  <line id="right-margin-Ultralight-S" style="fill:none;stroke:#00AEEF;stroke-width:0.5;opacity:1.0;" x1="606.412" x2="606.412" y1="600.785" y2="720.121"/>
  <line id="left-margin-Ultralight-S" style="fill:none;stroke:#00AEEF;stroke-width:0.5;opacity:1.0;" x1="513.01" x2="513.01" y1="600.785" y2="720.121"/>
 </g>
 <g id="Symbols">
  <g id="Black-S" transform="matrix(1 0 0 1 2880.67 696)">
   <path class="monochrome-0 multicolor-0:systemRedColor hierarchical-0:primary SFSymbolsPreviewWireframe" d="M60.46-78.706C60.18-78.51 59.82-77.858 59.6-77.227C59.45-76.761 59.35-76.074 59.29-73.439C59.25-72.128 59.23-70.333 59.2-67.843C59.16-64.12 59.13-58.84 59.09-51.292C58.96-28.208 58.94-26.185 58.51-22.029C57.65-13.587 56.98-6.255 56.86-3.644C56.77-1.801 56.83-0.131 57.03 1.334C57.37 3.832 58.12 5.735 59.23 6.892C59.46 7.124 59.69 7.325 59.94 7.495C60.8 8.082 62.64 8.169 63.58 7.694C63.59 7.693 63.59 7.692 63.59 7.691C64.44 7.239 65.14 6.432 65.66 5.324C66.43 3.718 66.83 1.481 66.81-1.228C66.8-1.506 66.8-1.79 66.79-2.078C66.7-4.167 66.44-5.842 65.56-9.976C63.05-21.877 62.63-29.318 64.02-36.171C64.73-39.587 65.5-41.545 68.39-47.05C71.33-52.663 72.04-57.08 70.9-62.432C70.82-62.827 70.72-63.233 70.61-63.648C69.96-66.066 68.86-68.775 67.58-71.199C67.07-72.163 66.53-73.082 65.97-73.92C65.18-75.112 63.98-76.56 63-77.561C62.44-78.131 61.96-78.556 61.66-78.706C60.93-79.098 61.02-79.098 60.46-78.706ZM38.39-72.897C38.14-72.602 37.91-71.823 37.7-70.597C37.44-69.096 37.21-66.924 37.01-64.149C36.94-63.184 36.88-62.147 36.82-61.04C36.55-56.169 36.7-53.25 37.63-50.551C38.17-48.993 38.97-47.509 40.1-45.766C41.84-43.09 42.87-40.98 43.4-39C43.73-37.803 43.79-36.715 43.77-31.929C43.75-25.293 43.34-20.441 42.29-13.544C40.87-4.448 40.67-2.924 40.74-0.911C40.74-0.699 40.75-0.482 40.77-0.25C40.88 2.002 41.4 4.205 42.14 5.634C42.26 5.862 42.38 6.07 42.5 6.255C42.93 6.884 43.5 7.343 44.14 7.628C45.53 8.257 47.24 8.042 48.41 6.962C48.54 6.839 48.67 6.705 48.79 6.56C49.57 5.598 50.23 3.63 50.55 1.458C50.69 0.535 50.76-0.425 50.76-1.36C50.76-2.839 50.72-3.057 49.17-12.782C47.76-21.681 47.46-25.053 47.44-31.82C47.44-37.172 47.48-37.716 47.93-39.283C48.53-41.415 49.58-43.525 51.1-45.679C52.71-47.985 53.89-50.531 54.3-52.533C54.69-54.556 54.73-60.648 54.39-64.673C54.27-66.028 54.16-67.207 54.05-68.214C53.75-70.976 53.48-72.446 53.23-72.701C52.67-73.285 52.48-73.08 52.29-68.214C52.22-66.364 52.14-63.84 52.05-60.43C51.94-56.449 51.75-52.837 51.6-52.337C51.37-51.498 50.99-50.919 50.46-50.609C49.98-50.324 49.37-50.267 48.64-50.444C48.29-50.531 47.98-50.74 47.71-51.052C47.24-51.603 46.92-52.473 46.82-53.555C46.82-53.555 46.64-58.451 46.58-62.932C46.56-64.614 46.52-66.234 46.49-67.625C46.44-69.942 46.38-71.624 46.34-71.896C46.21-72.832 45.85-73.223 45.4-72.941C45.17-72.8 45.09-72.535 44.88-67.226C44.8-65.161 44.7-62.332 44.56-58.451C44.43-54.477 44.32-52.691 44.01-51.738C43.83-51.188 43.59-50.916 43.23-50.661C42.59-50.226 41.35-50.205 40.72-50.661C40.58-50.761 40.45-50.865 40.34-50.995C39.49-51.948 39.35-54.224 39.09-65.201C39.09-65.49 39.08-65.785 39.07-66.087C39.03-68.042 38.97-69.843 38.91-71.101C38.86-72.154 38.81-72.828 38.77-72.897C38.64-73.136 38.58-73.136 38.39-72.897ZM71.8-69.277C72.87-66.963 73.73-64.535 74.18-62.432C74.27-61.966 74.36-61.507 74.43-61.053C78.39-57.945 81.68-53.929 84.19-49.097C88.4-41.025 88.95-30.625 85.74-21.161C83.7-15.221 78.85-8.846 73.38-4.908C72.31-4.134 71.18-3.426 70.02-2.785C70.04-2.552 70.05-2.318 70.06-2.078C70.15 0.211 69.95 2.197 69.5 3.792C70.41 3.372 71.35 2.904 72.33 2.38C78.36-0.84 83.55-5.778 87.32-11.892C89.38-15.243 90.69-18.158 91.72-21.813C93.03-26.404 93.31-28.406 93.33-33.345C93.33-37.718 93.24-38.458 92.34-42.591C90.52-50.794 85.67-58.822 79.28-64.24C76.95-66.205 74.44-67.89 71.8-69.277ZM37.5-0.25C37.57 1.349 37.86 2.923 38.29 4.213C34.41 2.579 30.76 0.413 28.13-1.906L27.67-2.32C27.06-2.862 26.41-3.441 26.07-3.733C25.36-4.342 23.22-6.67 22.08-8.041C21.31-8.999 19.34-11.936 18.41-13.546C16.46-16.896 14.53-22.553 13.74-27.144C13.16-30.473 13.2-36.587 13.82-39.981C15.45-48.945 19.38-56.386 25.75-62.565C28.3-65.034 31.13-67.14 34.17-68.844C33.96-67.079 33.76-64.781 33.6-62.001C26.48-56.95 21.63-49.647 19.4-40.525C18.99-38.784 18.93-37.979 18.91-33.562C18.91-28.079 19.08-26.818 20.34-22.945C22.58-16.157 26.18-10.739 31.35-6.496C33.2-4.963 35.29-3.59 37.48-2.434C37.44-1.637 37.45-1.027 37.5-0.25Z"/>
  </g>
  <g id="Regular-S" transform="matrix(1 0 0 1 1399.94 696)">
   <path class="monochrome-0 multicolor-0:systemRedColor hierarchical-0:primary SFSymbolsPreviewWireframe" d="M57.19-78.706C56.91-78.51 56.55-77.858 56.33-77.227C56.18-76.761 56.08-76.074 56.02-73.439C55.98-72.128 55.96-70.333 55.93-67.843C55.89-64.12 55.86-58.84 55.82-51.292C55.69-28.208 55.67-26.185 55.24-22.029C54.38-13.587 53.71-6.255 53.59-3.644C53.5-1.801 53.56-0.131 53.76 1.334C54.1 3.832 54.85 5.735 55.96 6.892C56.19 7.124 56.42 7.325 56.67 7.495C57.53 8.082 59.37 8.169 60.31 7.694C60.32 7.693 60.32 7.692 60.32 7.691C61.17 7.239 61.87 6.432 62.39 5.324C63.16 3.718 63.56 1.481 63.54-1.228C63.53-1.506 63.53-1.79 63.52-2.078C63.43-4.167 63.17-5.842 62.29-9.976C59.78-21.877 59.36-29.318 60.75-36.171C61.46-39.587 62.23-41.545 65.12-47.05C68.06-52.663 68.77-57.08 67.63-62.432C67.55-62.827 67.45-63.233 67.34-63.648C66.69-66.066 65.59-68.775 64.31-71.199C63.8-72.163 63.26-73.082 62.7-73.92C61.91-75.112 60.71-76.56 59.73-77.561C59.17-78.131 58.69-78.556 58.39-78.706C57.66-79.098 57.75-79.098 57.19-78.706ZM35.12-72.897C34.87-72.602 34.64-71.823 34.43-70.597C34.17-69.096 33.94-66.924 33.74-64.149C33.67-63.184 33.61-62.147 33.55-61.04C33.28-56.169 33.43-53.25 34.36-50.551C34.9-48.993 35.7-47.509 36.83-45.766C38.57-43.09 39.6-40.98 40.13-39C40.46-37.803 40.52-36.715 40.5-31.929C40.48-25.293 40.07-20.441 39.02-13.544C37.6-4.448 37.4-2.924 37.47-0.911C37.47-0.699 37.48-0.482 37.5-0.25C37.61 2.002 38.13 4.205 38.87 5.634C38.99 5.862 39.11 6.07 39.23 6.255C39.66 6.884 40.23 7.343 40.87 7.628C42.26 8.257 43.97 8.042 45.14 6.962C45.27 6.839 45.4 6.705 45.52 6.56C46.3 5.598 46.96 3.63 47.28 1.458C47.42 0.535 47.49-0.425 47.49-1.36C47.49-2.839 47.45-3.057 45.9-12.782C44.49-21.681 44.19-25.053 44.17-31.82C44.17-37.172 44.21-37.716 44.66-39.283C45.26-41.415 46.31-43.525 47.83-45.679C49.44-47.985 50.62-50.531 51.03-52.533C51.42-54.556 51.46-60.648 51.12-64.673C51-66.028 50.89-67.207 50.78-68.214C50.48-70.976 50.21-72.446 49.96-72.701C49.4-73.285 49.21-73.08 49.02-68.214C48.95-66.364 48.87-63.84 48.78-60.43C48.67-56.449 48.48-52.837 48.33-52.337C48.1-51.498 47.72-50.919 47.19-50.609C46.71-50.324 46.1-50.267 45.37-50.444C45.02-50.531 44.71-50.74 44.44-51.052C43.97-51.603 43.65-52.473 43.55-53.555C43.55-53.555 43.37-58.451 43.31-62.932C43.29-64.614 43.25-66.234 43.22-67.625C43.17-69.942 43.11-71.624 43.07-71.896C42.94-72.832 42.58-73.223 42.13-72.941C41.9-72.8 41.82-72.535 41.61-67.226C41.53-65.161 41.43-62.332 41.29-58.451C41.16-54.477 41.05-52.691 40.74-51.738C40.56-51.188 40.32-50.916 39.96-50.661C39.32-50.226 38.08-50.205 37.45-50.661C37.31-50.761 37.18-50.865 37.07-50.995C36.22-51.948 36.08-54.224 35.82-65.201C35.82-65.49 35.81-65.785 35.8-66.087C35.76-68.042 35.7-69.843 35.64-71.101C35.59-72.154 35.54-72.828 35.5-72.897C35.37-73.136 35.31-73.136 35.12-72.897ZM68.53-69.277C69.6-66.963 70.46-64.535 70.91-62.432C71-61.966 71.09-61.507 71.16-61.053C75.12-57.945 78.41-53.929 80.92-49.097C85.13-41.025 85.68-30.625 82.47-21.161C80.43-15.221 75.58-8.846 70.11-4.908C69.04-4.134 67.91-3.426 66.75-2.785C66.77-2.552 66.78-2.318 66.79-2.078C66.88 0.211 66.68 2.197 66.23 3.792C67.14 3.372 68.08 2.904 69.06 2.38C75.09-0.84 80.28-5.778 84.05-11.892C86.11-15.243 87.42-18.158 88.45-21.813C89.76-26.404 90.04-28.406 90.06-33.345C90.06-37.718 89.97-38.458 89.07-42.591C87.25-50.794 82.4-58.822 76.01-64.24C73.68-66.205 71.17-67.89 68.53-69.277ZM34.23-0.25C34.3 1.349 34.59 2.923 35.02 4.213C31.14 2.579 27.49 0.413 24.86-1.906L24.4-2.32C23.79-2.862 23.14-3.441 22.8-3.733C22.09-4.342 19.95-6.67 18.81-8.041C18.04-8.999 16.07-11.936 15.14-13.546C13.19-16.896 11.26-22.553 10.47-27.144C9.89-30.473 9.93-36.587 10.55-39.981C12.18-48.945 16.11-56.386 22.48-62.565C25.03-65.034 27.86-67.14 30.9-68.844C30.69-67.079 30.49-64.781 30.33-62.001C23.21-56.95 18.36-49.647 16.13-40.525C15.72-38.784 15.66-37.979 15.64-33.562C15.64-28.079 15.81-26.818 17.07-22.945C19.31-16.157 22.91-10.739 28.08-6.496C29.93-4.963 32.02-3.59 34.21-2.434C34.17-1.637 34.18-1.027 34.23-0.25Z"/>
  </g>
  <g id="Ultralight-S" transform="matrix(1 0 0 1 513.01 696)">
   <path class="monochrome-0 multicolor-0:systemRedColor hierarchical-0:primary SFSymbolsPreviewWireframe" d="M54.119-78.706C53.84-78.51 53.476-77.858 53.261-77.227C53.108-76.761 53.015-76.074 52.947-73.439C52.913-72.128 52.886-70.333 52.86-67.843C52.822-64.12 52.789-58.84 52.746-51.292C52.618-28.208 52.596-26.185 52.167-22.029C51.309-13.587 50.645-6.255 50.516-3.644C50.431-1.801 50.493-0.131 50.693 1.334C51.034 3.832 51.778 5.735 52.892 6.892C53.115 7.124 53.352 7.325 53.604 7.495C54.46 8.082 56.299 8.169 57.245 7.694C57.246 7.693 57.248 7.692 57.25 7.691C58.101 7.239 58.798 6.432 59.324 5.324C60.086 3.718 60.486 1.481 60.466-1.228C60.464-1.506 60.457-1.79 60.446-2.078C60.36-4.167 60.103-5.842 59.224-9.976C56.714-21.877 56.285-29.318 57.679-36.171C58.387-39.587 59.159-41.545 62.055-47.05C64.993-52.663 65.701-57.08 64.564-62.432C64.479-62.827 64.381-63.233 64.269-63.648C63.617-66.066 62.521-68.775 61.237-71.199C60.726-72.163 60.185-73.082 59.631-73.92C58.839-75.112 57.637-76.56 56.659-77.561C56.101-78.131 55.616-78.556 55.32-78.706C54.591-79.098 54.677-79.098 54.119-78.706ZM32.046-72.897C31.803-72.602 31.573-71.823 31.36-70.597C31.1-69.096 30.867-66.924 30.671-64.149C30.603-63.184 30.539-62.147 30.481-61.04C30.209-56.169 30.359-53.25 31.293-50.551C31.832-48.993 32.632-47.509 33.762-45.766C35.499-43.09 36.529-40.98 37.065-39C37.387-37.803 37.451-36.715 37.43-31.929C37.408-25.293 37.001-20.441 35.95-13.544C34.533-4.448 34.328-2.924 34.397-0.911C34.404-0.699 34.415-0.482 34.427-0.25C34.538 2.002 35.064 4.205 35.798 5.634C35.915 5.862 36.038 6.07 36.164 6.255C36.592 6.884 37.162 7.343 37.795 7.628C39.192 8.257 40.898 8.042 42.07 6.962C42.204 6.839 42.33 6.705 42.448 6.56C43.231 5.598 43.887 3.63 44.208 1.458C44.345 0.535 44.421-0.425 44.421-1.36C44.421-2.839 44.379-3.057 42.834-12.782C41.419-21.681 41.119-25.053 41.097-31.82C41.097-37.172 41.14-37.716 41.59-39.283C42.191-41.415 43.242-43.525 44.765-45.679C46.373-47.985 47.553-50.531 47.96-52.533C48.346-54.556 48.389-60.648 48.046-64.673C47.931-66.028 47.82-67.207 47.711-68.214C47.414-70.976 47.139-72.446 46.888-72.701C46.328-73.285 46.141-73.08 45.949-68.214C45.876-66.364 45.803-63.84 45.708-60.43C45.601-56.449 45.408-52.837 45.258-52.337C45.034-51.498 44.654-50.919 44.125-50.609C43.639-50.324 43.027-50.267 42.298-50.444C41.949-50.531 41.636-50.74 41.371-51.052C40.904-51.603 40.585-52.473 40.475-53.555C40.475-53.555 40.304-58.451 40.239-62.932C40.215-64.614 40.185-66.234 40.153-67.625C40.1-69.942 40.043-71.624 40.003-71.896C39.875-72.832 39.51-73.223 39.06-72.941C38.828-72.8 38.752-72.535 38.544-67.226C38.462-65.161 38.361-62.332 38.223-58.451C38.087-54.477 37.977-52.691 37.669-51.738C37.491-51.188 37.247-50.916 36.893-50.661C36.25-50.226 35.006-50.205 34.384-50.661C34.241-50.761 34.114-50.865 33.999-50.995C33.152-51.948 33.005-54.224 32.753-65.201C32.746-65.49 32.739-65.785 32.733-66.087C32.686-68.042 32.626-69.843 32.568-71.101C32.519-72.154 32.471-72.828 32.432-72.897C32.304-73.136 32.239-73.136 32.046-72.897ZM65.459-69.277C66.529-66.963 67.385-64.535 67.835-62.432C67.934-61.966 68.019-61.507 68.09-61.053C72.052-57.945 75.345-53.929 77.853-49.097C82.057-41.025 82.615-30.625 79.398-21.161C77.36-15.221 72.513-8.846 67.044-4.908C65.968-4.134 64.844-3.426 63.68-2.785C63.695-2.552 63.707-2.318 63.717-2.078C63.805 0.211 63.608 2.197 63.16 3.792C64.075 3.372 65.011 2.904 65.993 2.38C72.02-0.84 77.21-5.778 80.985-11.892C83.044-15.243 84.352-18.158 85.381-21.813C86.69-26.404 86.969-28.406 86.99-33.345C86.99-37.718 86.904-38.458 86.003-42.591C84.18-50.794 79.333-58.822 72.942-64.24C70.614-66.205 68.101-67.89 65.459-69.277ZM31.156-0.25C31.235 1.349 31.523 2.923 31.946 4.213C28.069 2.579 24.418 0.413 21.79-1.906L21.325-2.32C20.719-2.862 20.07-3.441 19.731-3.733C19.023-4.342 16.879-6.67 15.742-8.041C14.97-8.999 12.997-11.936 12.074-13.546C10.123-16.896 8.192-22.553 7.399-27.144C6.82-30.473 6.863-36.587 7.485-39.981C9.115-48.945 13.039-56.386 19.409-62.565C21.957-65.034 24.791-67.14 27.835-68.844C27.616-67.079 27.423-64.781 27.263-62.001C20.141-56.95 15.291-49.647 13.061-40.525C12.653-38.784 12.589-37.979 12.568-33.562C12.568-28.079 12.739-26.818 14.005-22.945C16.235-16.157 19.838-10.739 25.007-6.496C26.862-4.963 28.947-3.59 31.139-2.434C31.096-1.637 31.115-1.027 31.156-0.25Z"/>
  </g>
 </g>
</svg>
