<?xml version="1.0" encoding="UTF-8"?>
<!--Generator: Apple Native CoreSVG 341-->
<!DOCTYPE svg
PUBLIC "-//W3C//DTD SVG 1.1//EN"
       "http://www.w3.org/Graphics/SVG/1.1/DTD/svg11.dtd">
<svg version="1.1" xmlns="http://www.w3.org/2000/svg" xmlns:xlink="http://www.w3.org/1999/xlink" viewBox="0 0 3300 2200">
 <!--glyph: "", point size: 100.0, font version: "21.1d1e1", template writer version: "138.0.0"-->
 <style>.defaults {-sfsymbols-variable-value-mode:color;-sfsymbols-draw-reverses-motion-groups:true}

.monochrome-0 {-sfsymbols-motion-group:0;-sfsymbols-layer-tags:564e6372230e3aae 7f37d10e7e35507 link}

.multicolor-0:systemGreenColor {-sfsymbols-motion-group:0;-sfsymbols-layer-tags:564e6372230e3aae 7f37d10e7e35507 link}

.hierarchical-0:primary {-sfsymbols-motion-group:0;-sfsymbols-layer-tags:564e6372230e3aae 7f37d10e7e35507 link}

.SFSymbolsPreviewWireframe {fill:none;opacity:1.0;stroke:black;stroke-width:0.5}
</style>
 <g id="Notes">
  <rect height="2200" id="artboard" style="fill:white;opacity:1" width="3300" x="0" y="0"/>
  <line style="fill:none;stroke:black;opacity:1;stroke-width:0.5;" x1="263" x2="3036" y1="292" y2="292"/>
  <text style="stroke:none;fill:black;font-family:sans-serif;font-size:13;font-weight:bold;" transform="matrix(1 0 0 1 263 322)">Weight/Scale Variations</text>
  <text style="stroke:none;fill:black;font-family:sans-serif;font-size:13;text-anchor:middle;" transform="matrix(1 0 0 1 559.711 322)">Ultralight</text>
  <text style="stroke:none;fill:black;font-family:sans-serif;font-size:13;text-anchor:middle;" transform="matrix(1 0 0 1 856.422 322)">Thin</text>
  <text style="stroke:none;fill:black;font-family:sans-serif;font-size:13;text-anchor:middle;" transform="matrix(1 0 0 1 1153.13 322)">Light</text>
  <text style="stroke:none;fill:black;font-family:sans-serif;font-size:13;text-anchor:middle;" transform="matrix(1 0 0 1 1449.84 322)">Regular</text>
  <text style="stroke:none;fill:black;font-family:sans-serif;font-size:13;text-anchor:middle;" transform="matrix(1 0 0 1 1746.56 322)">Medium</text>
  <text style="stroke:none;fill:black;font-family:sans-serif;font-size:13;text-anchor:middle;" transform="matrix(1 0 0 1 2043.27 322)">Semibold</text>
  <text style="stroke:none;fill:black;font-family:sans-serif;font-size:13;text-anchor:middle;" transform="matrix(1 0 0 1 2339.98 322)">Bold</text>
  <text style="stroke:none;fill:black;font-family:sans-serif;font-size:13;text-anchor:middle;" transform="matrix(1 0 0 1 2636.69 322)">Heavy</text>
  <text style="stroke:none;fill:black;font-family:sans-serif;font-size:13;text-anchor:middle;" transform="matrix(1 0 0 1 2933.4 322)">Black</text>
  <line style="fill:none;stroke:black;opacity:1;stroke-width:0.5;" x1="263" x2="3036" y1="1903" y2="1903"/>
  <g transform="matrix(0.2 0 0 0.2 263 1933)">
   <path d="m46.2402 4.15039c21.7773 0 39.4531-17.627 39.4531-39.4043s-17.6758-39.4043-39.4531-39.4043c-21.7285 0-39.4043 17.627-39.4043 39.4043s17.6758 39.4043 39.4043 39.4043Zm0-7.42188c-17.6758 0-31.9336-14.3066-31.9336-31.9824s14.2578-31.9824 31.9336-31.9824 31.9824 14.3066 31.9824 31.9824-14.3066 31.9824-31.9824 31.9824Zm3.61328-17.7734v-28.4668c0-2.24609-1.46484-3.75977-3.71094-3.75977-2.14844 0-3.61328 1.51367-3.61328 3.75977v28.4668c0 2.19727 1.46484 3.71094 3.61328 3.71094 2.24609 0 3.71094-1.51367 3.71094-3.71094Zm-17.8223-10.5957h28.418c2.19727 0 3.71094-1.46484 3.71094-3.61328 0-2.19727-1.51367-3.71094-3.71094-3.71094h-28.418c-2.24609 0-3.75977 1.51367-3.75977 3.71094 0 2.14844 1.51367 3.61328 3.75977 3.61328Z"/>
  </g>
  <g transform="matrix(0.2 0 0 0.2 281.506 1933)">
   <path d="m58.5449 14.5508c27.4902 0 49.8047-22.3145 49.8047-49.8047s-22.3145-49.8047-49.8047-49.8047-49.8047 22.3145-49.8047 49.8047 22.3145 49.8047 49.8047 49.8047Zm0-8.30078c-22.9492 0-41.5039-18.5547-41.5039-41.5039s18.5547-41.5039 41.5039-41.5039 41.5039 18.5547 41.5039 41.5039-18.5547 41.5039-41.5039 41.5039Zm4.05273-23.0957v-36.9141c0-2.49023-1.70898-4.19922-4.15039-4.19922-2.39258 0-4.05273 1.70898-4.05273 4.19922v36.9141c0 2.44141 1.66016 4.15039 4.05273 4.15039 2.44141 0 4.15039-1.66016 4.15039-4.15039Zm-22.5586-14.4043h36.9629c2.44141 0 4.15039-1.61133 4.15039-4.00391 0-2.44141-1.70898-4.15039-4.15039-4.15039h-36.9629c-2.49023 0-4.15039 1.70898-4.15039 4.15039 0 2.39258 1.66016 4.00391 4.15039 4.00391Z"/>
  </g>
  <g transform="matrix(0.2 0 0 0.2 304.924 1933)">
   <path d="m74.8535 28.3203c35.1074 0 63.623-28.4668 63.623-63.5742s-28.5156-63.623-63.623-63.623-63.5742 28.5156-63.5742 63.623 28.4668 63.5742 63.5742 63.5742Zm0-9.08203c-30.127 0-54.4922-24.3652-54.4922-54.4922s24.3652-54.4922 54.4922-54.4922 54.4922 24.3652 54.4922 54.4922-24.3652 54.4922-54.4922 54.4922Zm4.44336-30.3223v-48.4863c0-2.73438-1.85547-4.63867-4.54102-4.63867-2.58789 0-4.44336 1.9043-4.44336 4.63867v48.4863c0 2.68555 1.85547 4.58984 4.44336 4.58984 2.68555 0 4.54102-1.85547 4.54102-4.58984Zm-28.7109-19.7754h48.4863c2.68555 0 4.58984-1.80664 4.58984-4.39453 0-2.73438-1.85547-4.58984-4.58984-4.58984h-48.4863c-2.73438 0-4.58984 1.85547-4.58984 4.58984 0 2.58789 1.85547 4.39453 4.58984 4.39453Z"/>
  </g>
  <text style="stroke:none;fill:black;font-family:sans-serif;font-size:13;font-weight:bold;" transform="matrix(1 0 0 1 263 1953)">Design Variations</text>
  <text style="stroke:none;fill:black;font-family:sans-serif;font-size:13;" transform="matrix(1 0 0 1 263 1971)">Symbols are supported in up to nine weights and three scales.</text>
  <text style="stroke:none;fill:black;font-family:sans-serif;font-size:13;" transform="matrix(1 0 0 1 263 1989)">For optimal layout with text and other symbols, vertically align</text>
  <text style="stroke:none;fill:black;font-family:sans-serif;font-size:13;" transform="matrix(1 0 0 1 263 2007)">symbols with the adjacent text.</text>
  <line style="fill:none;stroke:#00AEEF;stroke-width:0.5;opacity:1.0;" x1="776" x2="776" y1="1919" y2="1933"/>
  <g transform="matrix(0.2 0 0 0.2 776 1933)">
   <path d="m16.5527 0.78125c2.58789 0 3.85742-0.976562 4.78516-3.71094l20.5566-57.5195h0.244141l20.6055 57.5195c0.927734 2.73438 2.19727 3.71094 4.73633 3.71094 2.58789 0 4.24805-1.5625 4.24805-4.00391 0-0.830078-0.146484-1.61133-0.537109-2.63672l-22.9004-60.9863c-1.12305-2.97852-3.125-4.49219-6.25-4.49219-3.02734 0-5.07812 1.46484-6.15234 4.44336l-22.9004 61.084c-0.390625 1.02539-0.537109 1.80664-0.537109 2.63672 0 2.44141 1.5625 3.95508 4.10156 3.95508Zm10.2051-20.9473h30.6641c2.00195 0 3.66211-1.66016 3.66211-3.66211 0-2.05078-1.66016-3.66211-3.66211-3.66211h-30.6641c-2.00195 0-3.66211 1.61133-3.66211 3.66211 0 2.00195 1.66016 3.66211 3.66211 3.66211Z"/>
  </g>
  <line style="fill:none;stroke:#00AEEF;stroke-width:0.5;opacity:1.0;" x1="792.836" x2="792.836" y1="1919" y2="1933"/>
  <text style="stroke:none;fill:black;font-family:sans-serif;font-size:13;font-weight:bold;" transform="matrix(1 0 0 1 776 1953)">Margins</text>
  <text style="stroke:none;fill:black;font-family:sans-serif;font-size:13;" transform="matrix(1 0 0 1 776 1971)">Leading and trailing margins on the left and right side of each symbol</text>
  <text style="stroke:none;fill:black;font-family:sans-serif;font-size:13;" transform="matrix(1 0 0 1 776 1989)">can be adjusted by modifying the x-location of the margin guidelines.</text>
  <text style="stroke:none;fill:black;font-family:sans-serif;font-size:13;" transform="matrix(1 0 0 1 776 2007)">Modifications are automatically applied proportionally to all</text>
  <text style="stroke:none;fill:black;font-family:sans-serif;font-size:13;" transform="matrix(1 0 0 1 776 2025)">scales and weights.</text>
  <g transform="matrix(0.2 0 0 0.2 1289 1933)">
   <path d="m14.209 13.1348 7.86133 7.86133c4.29688 4.39453 9.32617 4.10156 13.8672-1.02539l60.6934-68.2129-4.88281-4.88281-60.2539 67.6758c-1.80664 1.95312-3.4668 2.44141-5.81055 0.0976562l-5.17578-5.12695c-2.29492-2.29492-1.80664-3.95508 0.195312-5.81055l67.4805-62.1582-4.88281-4.83398-68.0664 62.5977c-4.98047 4.58984-5.32227 9.47266-1.02539 13.8184Zm44.873-97.4609c-2.05078 2.00195-2.24609 4.88281-1.07422 6.78711 1.12305 1.80664 3.4668 3.02734 6.5918 2.24609 5.85938-1.66016 12.5977-2.39258 18.8965 0.927734l-2.68555 7.12891c-1.61133 4.00391-0.732422 6.88477 1.70898 9.42383l10.2539 10.3027c2.34375 2.39258 4.54102 2.44141 7.08008 1.95312l4.44336-0.732422 2.58789 2.53906-0.195312 2.24609c-0.0976562 2.29492 0.537109 4.29688 2.7832 6.49414l3.36914 3.32031c2.29492 2.29492 5.51758 2.49023 7.8125 0.195312l12.9883-13.0371c2.29492-2.34375 2.14844-5.37109-0.195312-7.66602l-3.41797-3.41797c-2.19727-2.19727-4.05273-3.02734-6.34766-2.88086l-2.34375 0.244141-2.44141-2.44141 1.02539-4.6875c0.634766-2.73438-0.244141-4.98047-2.88086-7.61719l-11.2793-11.1816c-12.9395-12.8418-35.5957-11.0352-46.6797-0.146484Zm7.08008 2.05078c8.78906-6.39648 25.9766-5.66406 33.6914 1.95312l12.3047 12.207c1.02539 1.02539 1.2207 1.80664 0.927734 3.32031l-1.46484 6.64062 6.73828 6.68945 4.39453-0.244141c1.12305-0.0488281 1.51367 0.0488281 2.34375 0.878906l2.53906 2.49023-10.8398 10.8398-2.49023-2.49023c-0.830078-0.878906-0.976562-1.2207-0.927734-2.39258l0.292969-4.3457-6.68945-6.73828-6.83594 1.17188c-1.41602 0.292969-2.05078 0.195312-3.17383-0.878906l-8.93555-8.88672c-1.07422-1.02539-1.17188-1.70898-0.488281-3.36914l4.58984-11.4746c-6.10352-6.34766-17.041-7.51953-25.5859-4.58984-0.683594 0.244141-0.927734-0.390625-0.390625-0.78125Z"/>
  </g>
  <text style="stroke:none;fill:black;font-family:sans-serif;font-size:13;font-weight:bold;" transform="matrix(1 0 0 1 1289 1953)">Exporting</text>
  <text style="stroke:none;fill:black;font-family:sans-serif;font-size:13;" transform="matrix(1 0 0 1 1289 1971)">Symbols should be outlined when exporting to ensure the</text>
  <text style="stroke:none;fill:black;font-family:sans-serif;font-size:13;" transform="matrix(1 0 0 1 1289 1989)">design is preserved when submitting to Xcode.</text>
  <text id="template-version" style="stroke:none;fill:black;font-family:sans-serif;font-size:13;text-anchor:end;" transform="matrix(1 0 0 1 3036 1933)">Template v.7.0</text>
  <text style="stroke:none;fill:black;font-family:sans-serif;font-size:13;text-anchor:end;" transform="matrix(1 0 0 1 3036 1951)">Requires Xcode 26 or greater</text>
  <text id="descriptive-name" style="stroke:none;fill:black;font-family:sans-serif;font-size:13;text-anchor:end;" transform="matrix(1 0 0 1 3036 1969)">Generated from mich.greenstar</text>
  <text style="stroke:none;fill:black;font-family:sans-serif;font-size:13;text-anchor:end;" transform="matrix(1 0 0 1 3036 1987)">Typeset at 100.0 points</text>
  <text style="stroke:none;fill:black;font-family:sans-serif;font-size:13;" transform="matrix(1 0 0 1 263 726)">Small</text>
  <text style="stroke:none;fill:black;font-family:sans-serif;font-size:13;" transform="matrix(1 0 0 1 263 1156)">Medium</text>
  <text style="stroke:none;fill:black;font-family:sans-serif;font-size:13;" transform="matrix(1 0 0 1 263 1586)">Large</text>
 </g>
 <g id="Guides">
  <g id="H-reference" style="fill:#27AAE1;stroke:none;" transform="matrix(1 0 0 1 339 696)">
   <path d="M0.993654 0L3.63775 0L29.3281-67.1323L30.0303-67.1323L30.0303-70.459L28.1226-70.459ZM11.6885-24.4799L46.9815-24.4799L46.2315-26.7285L12.4385-26.7285ZM55.1196 0L57.7637 0L30.6382-70.459L29.4326-70.459L29.4326-67.1323Z"/>
  </g>
  <line id="Baseline-S" style="fill:none;stroke:#27AAE1;opacity:1;stroke-width:0.5;" x1="263" x2="3036" y1="696" y2="696"/>
  <line id="Capline-S" style="fill:none;stroke:#27AAE1;opacity:1;stroke-width:0.5;" x1="263" x2="3036" y1="625.541" y2="625.541"/>
  <g id="H-reference" style="fill:#27AAE1;stroke:none;" transform="matrix(1 0 0 1 339 1126)">
   <path d="M0.993654 0L3.63775 0L29.3281-67.1323L30.0303-67.1323L30.0303-70.459L28.1226-70.459ZM11.6885-24.4799L46.9815-24.4799L46.2315-26.7285L12.4385-26.7285ZM55.1196 0L57.7637 0L30.6382-70.459L29.4326-70.459L29.4326-67.1323Z"/>
  </g>
  <line id="Baseline-M" style="fill:none;stroke:#27AAE1;opacity:1;stroke-width:0.5;" x1="263" x2="3036" y1="1126" y2="1126"/>
  <line id="Capline-M" style="fill:none;stroke:#27AAE1;opacity:1;stroke-width:0.5;" x1="263" x2="3036" y1="1055.54" y2="1055.54"/>
  <g id="H-reference" style="fill:#27AAE1;stroke:none;" transform="matrix(1 0 0 1 339 1556)">
   <path d="M0.993654 0L3.63775 0L29.3281-67.1323L30.0303-67.1323L30.0303-70.459L28.1226-70.459ZM11.6885-24.4799L46.9815-24.4799L46.2315-26.7285L12.4385-26.7285ZM55.1196 0L57.7637 0L30.6382-70.459L29.4326-70.459L29.4326-67.1323Z"/>
  </g>
  <line id="Baseline-L" style="fill:none;stroke:#27AAE1;opacity:1;stroke-width:0.5;" x1="263" x2="3036" y1="1556" y2="1556"/>
  <line id="Capline-L" style="fill:none;stroke:#27AAE1;opacity:1;stroke-width:0.5;" x1="263" x2="3036" y1="1485.54" y2="1485.54"/>
  <line id="right-margin-Black-S" style="fill:none;stroke:#00AEEF;stroke-width:0.5;opacity:1.0;" x1="2986.13" x2="2986.13" y1="600.785" y2="720.121"/>
  <line id="left-margin-Black-S" style="fill:none;stroke:#00AEEF;stroke-width:0.5;opacity:1.0;" x1="2880.67" x2="2880.67" y1="600.785" y2="720.121"/>
  <line id="right-margin-Regular-S" style="fill:none;stroke:#00AEEF;stroke-width:0.5;opacity:1.0;" x1="1499.75" x2="1499.75" y1="600.785" y2="720.121"/>
  <line id="left-margin-Regular-S" style="fill:none;stroke:#00AEEF;stroke-width:0.5;opacity:1.0;" x1="1399.94" x2="1399.94" y1="600.785" y2="720.121"/>
  <line id="right-margin-Ultralight-S" style="fill:none;stroke:#00AEEF;stroke-width:0.5;opacity:1.0;" x1="606.412" x2="606.412" y1="600.785" y2="720.121"/>
  <line id="left-margin-Ultralight-S" style="fill:none;stroke:#00AEEF;stroke-width:0.5;opacity:1.0;" x1="513.01" x2="513.01" y1="600.785" y2="720.121"/>
 </g>
 <g id="Symbols">
  <g id="Black-S" transform="matrix(1 0 0 1 2880.67 696)">
   <path class="monochrome-0 multicolor-0:systemGreenColor hierarchical-0:primary SFSymbolsPreviewWireframe" d="M96.97-36.497C96.97-44.965 90.76-51.176 82.01-51.176C80.31-51.176 78.9-51.176 77.49-50.893C78.34-52.022 79.18-53.152 80.03-54.563C84.55-62.185 82.29-70.371 74.67-74.888C67.33-79.122 58.86-76.864 54.63-69.242C53.78-67.831 53.21-66.419 52.65-65.29C52.08-66.419 51.52-67.831 50.67-69.242C46.16-76.864 37.97-79.122 30.63-74.888C23.01-70.371 20.75-62.185 25.27-54.563C26.11-53.152 26.96-51.74 27.81-50.893C26.68-51.176 24.99-51.176 23.29-51.176C14.54-51.176 8.33-44.965 8.33-36.497C8.33-28.028 14.54-21.818 23.29-21.818C28.09-21.818 32.89-23.229 37.97-25.487L35.99-28.875C32.04-27.181 27.81-26.334 23.57-26.334C17.36-26.334 13.13-30.286 13.13-36.214C13.13-42.425 17.36-46.094 23.57-46.094C27.81-46.094 31.76-45.248 35.71-43.554L37.69-46.941C34.3-49.764 31.48-52.587 29.5-56.257C26.4-61.62 27.53-67.266 32.89-70.371C38.25-73.476 43.62-71.783 46.72-66.419C48.98-62.749 50.11-58.797 50.67-54.563L54.63-54.563C55.19-58.797 56.6-62.749 58.58-66.419C61.68-71.783 67.05-73.476 72.41-70.371C77.77-67.266 78.9-61.903 75.8-56.257C73.54-52.587 70.72-49.482 67.33-46.659L69.3-43.272C73.26-44.965 77.49-45.812 81.73-45.812C87.94-45.812 92.17-41.86 92.17-35.932C92.17-29.722 87.94-26.052 81.73-26.052C77.49-26.052 73.26-26.899 69.3-28.592L67.33-25.205C70.72-22.382 73.82-19.277 75.8-15.607C78.9-10.244 77.77-4.598 72.41-1.493C67.05 1.613 61.68-0.081 58.58-5.445C56.32-9.114 55.19-13.349 54.63-17.583L50.67-17.583C51.24-11.937 52.37-7.138 54.91-2.904C59.42 4.718 67.61 6.976 74.95 2.742C82.29-1.493 84.55-9.961 80.31-17.583C79.47-18.995 78.62-20.406 77.77-21.253C78.9-20.971 80.6-20.971 82.29-20.971C90.76-21.535 96.97-27.746 96.97-36.497ZM13.69-0.646L16.23 5C38.82-8.268 50.67-23.511 58.58-42.142L55.47-43.554C46.72-25.205 35.43-11.937 13.69-0.646Z"/>
  </g>
  <g id="Regular-S" transform="matrix(1 0 0 1 1399.94 696)">
   <path class="monochrome-0 multicolor-0:systemGreenColor hierarchical-0:primary SFSymbolsPreviewWireframe" d="M95.06-36.497C95.06-44.965 88.82-51.176 80.04-51.176C78.34-51.176 76.92-51.176 75.5-50.893C76.35-52.022 77.2-53.152 78.05-54.563C82.59-62.185 80.32-70.371 72.67-74.888C65.3-79.122 56.8-76.864 52.54-69.242C51.69-67.831 51.13-66.419 50.56-65.29C49.99-66.419 49.43-67.831 48.58-69.242C44.04-76.864 35.82-79.122 28.45-74.888C20.8-70.371 18.53-62.185 23.07-54.563C23.92-53.152 24.77-51.74 25.62-50.893C24.48-51.176 22.78-51.176 21.08-51.176C12.3-51.176 6.06-44.965 6.06-36.497C6.06-28.028 12.3-21.818 21.08-21.818C25.9-21.818 30.72-23.229 35.82-25.487L33.84-28.875C29.87-27.181 25.62-26.334 21.37-26.334C15.13-26.334 10.88-30.286 10.88-36.214C10.88-42.425 15.13-46.094 21.37-46.094C25.62-46.094 29.59-45.248 33.55-43.554L35.54-46.941C32.14-49.764 29.3-52.587 27.32-56.257C24.2-61.62 25.33-67.266 30.72-70.371C36.1-73.476 41.49-71.783 44.61-66.419C46.88-62.749 48.01-58.797 48.58-54.563L52.54-54.563C53.11-58.797 54.53-62.749 56.51-66.419C59.63-71.783 65.02-73.476 70.4-70.371C75.79-67.266 76.92-61.903 73.8-56.257C71.53-52.587 68.7-49.482 65.3-46.659L67.28-43.272C71.25-44.965 75.5-45.812 79.75-45.812C85.99-45.812 90.24-41.86 90.24-35.932C90.24-29.722 85.99-26.052 79.75-26.052C75.5-26.052 71.25-26.899 67.28-28.592L65.3-25.205C68.7-22.382 71.82-19.277 73.8-15.607C76.92-10.244 75.79-4.598 70.4-1.493C65.02 1.613 59.63-0.081 56.51-5.445C54.24-9.114 53.11-13.349 52.54-17.583L48.58-17.583C49.14-11.937 50.28-7.138 52.83-2.904C57.36 4.718 65.58 6.976 72.95 2.742C80.32-1.493 82.59-9.961 78.34-17.583C77.49-18.995 76.64-20.406 75.79-21.253C76.92-20.971 78.62-20.971 80.32-20.971C88.82-21.535 95.06-27.746 95.06-36.497ZM11.45-0.646L14 5C36.67-8.268 48.58-23.511 56.51-42.142L53.39-43.554C44.61-25.205 33.27-11.937 11.45-0.646Z"/>
  </g>
  <g id="Ultralight-S" transform="matrix(1 0 0 1 513.01 696)">
   <path class="monochrome-0 multicolor-0:systemGreenColor hierarchical-0:primary SFSymbolsPreviewWireframe" d="M90.629-36.497C90.629-44.965 84.419-51.176 75.668-51.176C73.974-51.176 72.562-51.176 71.151-50.893C71.998-52.022 72.845-53.152 73.692-54.563C78.208-62.185 75.95-70.371 68.328-74.888C60.989-79.122 52.52-76.864 48.285-69.242C47.439-67.831 46.874-66.419 46.309-65.29C45.745-66.419 45.18-67.831 44.333-69.242C39.817-76.864 31.63-79.122 24.291-74.888C16.669-70.371 14.411-62.185 18.927-54.563C19.774-53.152 20.621-51.74 21.468-50.893C20.339-51.176 18.645-51.176 16.951-51.176C8.2-51.176 1.99-44.965 1.99-36.497C1.99-28.028 8.2-21.818 16.951-21.818C21.75-21.818 26.549-23.229 31.63-25.487L29.654-28.875C25.702-27.181 21.468-26.334 17.234-26.334C11.023-26.334 6.789-30.286 6.789-36.214C6.789-42.425 11.023-46.094 17.234-46.094C21.468-46.094 25.42-45.248 29.372-43.554L31.348-46.941C27.961-49.764 25.138-52.587 23.162-56.257C20.057-61.62 21.186-67.266 26.549-70.371C31.913-73.476 37.276-71.783 40.381-66.419C42.64-62.749 43.769-58.797 44.333-54.563L48.285-54.563C48.85-58.797 50.262-62.749 52.238-66.419C55.343-71.783 60.706-73.476 66.07-70.371C71.433-67.266 72.562-61.903 69.457-56.257C67.199-52.587 64.376-49.482 60.989-46.659L62.965-43.272C66.917-44.965 71.151-45.812 75.385-45.812C81.596-45.812 85.83-41.86 85.83-35.932C85.83-29.722 81.596-26.052 75.385-26.052C71.151-26.052 66.917-26.899 62.965-28.592L60.989-25.205C64.376-22.382 67.481-19.277 69.457-15.607C72.562-10.244 71.433-4.598 66.07-1.493C60.706 1.613 55.343-0.081 52.238-5.445C49.979-9.114 48.85-13.349 48.285-17.583L44.333-17.583C44.898-11.937 46.027-7.138 48.568-2.904C53.084 4.718 61.271 6.976 68.61 2.742C75.95-1.493 78.208-9.961 73.974-17.583C73.127-18.995 72.28-20.406 71.433-21.253C72.562-20.971 74.256-20.971 75.95-20.971C84.419-21.535 90.629-27.746 90.629-36.497ZM7.354-0.646L9.894 5C32.477-8.268 44.333-23.511 52.238-42.142L49.132-43.554C40.381-25.205 29.09-11.937 7.354-0.646Z"/>
  </g>
 </g>
</svg>
