<?xml version="1.0" encoding="UTF-8"?>
<!--Generator: Apple Native CoreSVG 232.5-->
<!DOCTYPE svg
PUBLIC "-//W3C//DTD SVG 1.1//EN"
       "http://www.w3.org/Graphics/SVG/1.1/DTD/svg11.dtd">
<svg version="1.1" xmlns="http://www.w3.org/2000/svg" xmlns:xlink="http://www.w3.org/1999/xlink" width="3300" height="2200">
 <!--glyph: "", point size: 100.0, font version: "19.0d8e1", template writer version: "128"-->
 <style>.SFSymbolsPreviewWireframe {fill:none;opacity:1.0;stroke:black;stroke-width:0.5}
</style>
 <g id="Notes">
  <rect height="2200" id="artboard" style="fill:white;opacity:1" width="3300" x="0" y="0"/>
  <line style="fill:none;stroke:black;opacity:1;stroke-width:0.5;" x1="263" x2="3036" y1="292" y2="292"/>
  <text style="stroke:none;fill:black;font-family:sans-serif;font-size:13;font-weight:bold;" transform="matrix(1 0 0 1 263 322)">Weight/Scale Variations</text>
  <text style="stroke:none;fill:black;font-family:sans-serif;font-size:13;text-anchor:middle;" transform="matrix(1 0 0 1 559.711 322)">Ultralight</text>
  <text style="stroke:none;fill:black;font-family:sans-serif;font-size:13;text-anchor:middle;" transform="matrix(1 0 0 1 856.422 322)">Thin</text>
  <text style="stroke:none;fill:black;font-family:sans-serif;font-size:13;text-anchor:middle;" transform="matrix(1 0 0 1 1153.13 322)">Light</text>
  <text style="stroke:none;fill:black;font-family:sans-serif;font-size:13;text-anchor:middle;" transform="matrix(1 0 0 1 1449.84 322)">Regular</text>
  <text style="stroke:none;fill:black;font-family:sans-serif;font-size:13;text-anchor:middle;" transform="matrix(1 0 0 1 1746.56 322)">Medium</text>
  <text style="stroke:none;fill:black;font-family:sans-serif;font-size:13;text-anchor:middle;" transform="matrix(1 0 0 1 2043.27 322)">Semibold</text>
  <text style="stroke:none;fill:black;font-family:sans-serif;font-size:13;text-anchor:middle;" transform="matrix(1 0 0 1 2339.98 322)">Bold</text>
  <text style="stroke:none;fill:black;font-family:sans-serif;font-size:13;text-anchor:middle;" transform="matrix(1 0 0 1 2636.69 322)">Heavy</text>
  <text style="stroke:none;fill:black;font-family:sans-serif;font-size:13;text-anchor:middle;" transform="matrix(1 0 0 1 2933.4 322)">Black</text>
  <line style="fill:none;stroke:black;opacity:1;stroke-width:0.5;" x1="263" x2="3036" y1="1903" y2="1903"/>
  <g transform="matrix(0.2 0 0 0.2 263 1933)">
   <path d="m46.2402 4.15039c21.5332 0 39.4531-17.8711 39.4531-39.4043s-17.9688-39.4043-39.502-39.4043c-21.4844 0-39.3555 17.8711-39.3555 39.4043s17.9199 39.4043 39.4043 39.4043Zm0-7.42188c-17.7246 0-31.8848-14.209-31.8848-31.9824s14.1113-31.9824 31.8359-31.9824c17.7734 0 32.0312 14.209 32.0312 31.9824s-14.209 31.9824-31.9824 31.9824Zm-17.9688-31.9824c0 2.14844 1.51367 3.61328 3.75977 3.61328h10.498v10.5957c0 2.19727 1.46484 3.71094 3.61328 3.71094 2.24609 0 3.71094-1.51367 3.71094-3.71094v-10.5957h10.5957c2.19727 0 3.71094-1.46484 3.71094-3.61328 0-2.19727-1.51367-3.71094-3.71094-3.71094h-10.5957v-10.5469c0-2.24609-1.46484-3.75977-3.71094-3.75977-2.14844 0-3.61328 1.51367-3.61328 3.75977v10.5469h-10.498c-2.24609 0-3.75977 1.51367-3.75977 3.71094Z"/>
  </g>
  <g transform="matrix(0.2 0 0 0.2 281.506 1933)">
   <path d="m58.5449 14.5508c27.2461 0 49.8047-22.6074 49.8047-49.8047 0-27.2461-22.6074-49.8047-49.8535-49.8047-27.1973 0-49.7559 22.5586-49.7559 49.8047 0 27.1973 22.6074 49.8047 49.8047 49.8047Zm0-8.30078c-23.0469 0-41.4551-18.457-41.4551-41.5039s18.3594-41.5039 41.4062-41.5039 41.5527 18.457 41.5527 41.5039-18.457 41.5039-41.5039 41.5039Zm-22.6562-41.5039c0 2.39258 1.66016 4.00391 4.15039 4.00391h14.3555v14.4043c0 2.44141 1.66016 4.15039 4.05273 4.15039 2.44141 0 4.15039-1.66016 4.15039-4.15039v-14.4043h14.4043c2.44141 0 4.15039-1.61133 4.15039-4.00391 0-2.44141-1.70898-4.15039-4.15039-4.15039h-14.4043v-14.3555c0-2.49023-1.70898-4.19922-4.15039-4.19922-2.39258 0-4.05273 1.70898-4.05273 4.19922v14.3555h-14.3555c-2.49023 0-4.15039 1.70898-4.15039 4.15039Z"/>
  </g>
  <g transform="matrix(0.2 0 0 0.2 304.924 1933)">
   <path d="m74.8535 28.3203c34.8145 0 63.623-28.8086 63.623-63.5742 0-34.8145-28.8574-63.623-63.6719-63.623-34.7656 0-63.5254 28.8086-63.5254 63.623 0 34.7656 28.8086 63.5742 63.5742 63.5742Zm0-9.08203c-30.1758 0-54.4434-24.3164-54.4434-54.4922 0-30.2246 24.2188-54.4922 54.3945-54.4922 30.2246 0 54.541 24.2676 54.541 54.4922 0 30.1758-24.2676 54.4922-54.4922 54.4922Zm-28.8574-54.4922c0 2.58789 1.85547 4.39453 4.58984 4.39453h19.7266v19.7754c0 2.68555 1.85547 4.58984 4.44336 4.58984 2.68555 0 4.54102-1.85547 4.54102-4.58984v-19.7754h19.7754c2.68555 0 4.58984-1.80664 4.58984-4.39453 0-2.73438-1.85547-4.58984-4.58984-4.58984h-19.7754v-19.7266c0-2.73438-1.85547-4.63867-4.54102-4.63867-2.58789 0-4.44336 1.9043-4.44336 4.63867v19.7266h-19.7266c-2.73438 0-4.58984 1.85547-4.58984 4.58984Z"/>
  </g>
  <text style="stroke:none;fill:black;font-family:sans-serif;font-size:13;font-weight:bold;" transform="matrix(1 0 0 1 263 1953)">Design Variations</text>
  <text style="stroke:none;fill:black;font-family:sans-serif;font-size:13;" transform="matrix(1 0 0 1 263 1971)">Symbols are supported in up to nine weights and three scales.</text>
  <text style="stroke:none;fill:black;font-family:sans-serif;font-size:13;" transform="matrix(1 0 0 1 263 1989)">For optimal layout with text and other symbols, vertically align</text>
  <text style="stroke:none;fill:black;font-family:sans-serif;font-size:13;" transform="matrix(1 0 0 1 263 2007)">symbols with the adjacent text.</text>
  <line style="fill:none;stroke:#00AEEF;stroke-width:0.5;opacity:1.0;" x1="776" x2="776" y1="1919" y2="1933"/>
  <g transform="matrix(0.2 0 0 0.2 776 1933)">
   <path d="m16.5527 0.78125c2.58789 0 3.85742-0.976562 4.78516-3.71094l6.29883-17.2363h28.8086l6.29883 17.2363c0.927734 2.73438 2.19727 3.71094 4.73633 3.71094 2.58789 0 4.24805-1.5625 4.24805-4.00391 0-0.830078-0.146484-1.61133-0.537109-2.63672l-22.9004-60.9863c-1.12305-2.97852-3.125-4.49219-6.25-4.49219-3.02734 0-5.07812 1.46484-6.15234 4.44336l-22.9004 61.084c-0.390625 1.02539-0.537109 1.80664-0.537109 2.63672 0 2.44141 1.5625 3.95508 4.10156 3.95508Zm13.4766-28.3691 11.8652-32.8613h0.244141l11.8652 32.8613Z"/>
  </g>
  <line style="fill:none;stroke:#00AEEF;stroke-width:0.5;opacity:1.0;" x1="792.836" x2="792.836" y1="1919" y2="1933"/>
  <text style="stroke:none;fill:black;font-family:sans-serif;font-size:13;font-weight:bold;" transform="matrix(1 0 0 1 776 1953)">Margins</text>
  <text style="stroke:none;fill:black;font-family:sans-serif;font-size:13;" transform="matrix(1 0 0 1 776 1971)">Leading and trailing margins on the left and right side of each symbol</text>
  <text style="stroke:none;fill:black;font-family:sans-serif;font-size:13;" transform="matrix(1 0 0 1 776 1989)">can be adjusted by modifying the x-location of the margin guidelines.</text>
  <text style="stroke:none;fill:black;font-family:sans-serif;font-size:13;" transform="matrix(1 0 0 1 776 2007)">Modifications are automatically applied proportionally to all</text>
  <text style="stroke:none;fill:black;font-family:sans-serif;font-size:13;" transform="matrix(1 0 0 1 776 2025)">scales and weights.</text>
  <g transform="matrix(0.2 0 0 0.2 1289 1933)">
   <path d="m14.209 9.32617 8.49609 8.54492c4.29688 4.3457 9.22852 4.05273 13.8672-1.07422l53.4668-58.9355-4.83398-4.88281-53.0762 58.3984c-1.75781 2.00195-3.41797 2.49023-5.76172 0.146484l-5.85938-5.81055c-2.34375-2.29492-1.80664-4.00391 0.195312-5.81055l57.373-54.0039-4.88281-4.83398-57.959 54.4434c-4.93164 4.58984-5.32227 9.47266-1.02539 13.8184Zm32.0801-90.9668c-2.09961 2.05078-2.24609 4.93164-1.07422 6.88477 1.17188 1.80664 3.4668 2.97852 6.68945 2.14844 7.32422-1.70898 14.9414-2.00195 22.0703 2.68555l-2.92969 7.27539c-1.70898 4.15039-0.830078 7.08008 1.85547 9.81445l11.4746 11.5723c2.44141 2.44141 4.49219 2.53906 7.32422 2.05078l5.32227-0.976562 3.32031 3.36914-0.195312 2.7832c-0.195312 2.49023 0.439453 4.39453 2.88086 6.78711l3.80859 3.71094c2.39258 2.39258 5.46875 2.53906 7.8125 0.195312l14.5508-14.5996c2.34375-2.34375 2.24609-5.32227-0.146484-7.71484l-3.85742-3.80859c-2.39258-2.39258-4.24805-3.17383-6.64062-2.97852l-2.88086 0.244141-3.22266-3.17383 1.2207-5.61523c0.634766-2.83203-0.146484-5.0293-3.07617-7.95898l-10.9863-10.9375c-16.6992-16.6016-38.8672-16.2109-53.3203-1.75781Zm7.4707 1.85547c12.1582-8.88672 28.6133-7.37305 39.7461 3.75977l12.1582 12.0605c1.17188 1.17188 1.36719 2.09961 1.02539 3.80859l-1.61133 7.42188 7.51953 7.42188 4.93164-0.292969c1.26953-0.0488281 1.66016 0.0488281 2.63672 1.02539l2.88086 2.88086-12.207 12.207-2.88086-2.88086c-0.976562-0.976562-1.12305-1.36719-1.07422-2.68555l0.341797-4.88281-7.4707-7.42188-7.61719 1.26953c-1.61133 0.341797-2.34375 0.195312-3.56445-0.976562l-10.0098-10.0098c-1.26953-1.17188-1.41602-2.00195-0.634766-3.85742l4.39453-10.4492c-7.8125-7.27539-17.9688-10.4004-28.125-7.42188-0.78125 0.195312-1.07422-0.439453-0.439453-0.976562Z"/>
  </g>
  <text style="stroke:none;fill:black;font-family:sans-serif;font-size:13;font-weight:bold;" transform="matrix(1 0 0 1 1289 1953)">Exporting</text>
  <text style="stroke:none;fill:black;font-family:sans-serif;font-size:13;" transform="matrix(1 0 0 1 1289 1971)">Symbols should be outlined when exporting to ensure the</text>
  <text style="stroke:none;fill:black;font-family:sans-serif;font-size:13;" transform="matrix(1 0 0 1 1289 1989)">design is preserved when submitting to Xcode.</text>
  <text id="template-version" style="stroke:none;fill:black;font-family:sans-serif;font-size:13;text-anchor:end;" transform="matrix(1 0 0 1 3036 1933)">Template v.5.0</text>
  <text style="stroke:none;fill:black;font-family:sans-serif;font-size:13;text-anchor:end;" transform="matrix(1 0 0 1 3036 1951)">Requires Xcode 15 or greater</text>
  <text id="descriptive-name" style="stroke:none;fill:black;font-family:sans-serif;font-size:13;text-anchor:end;" transform="matrix(1 0 0 1 3036 1969)">Generated from custom.circle</text>
  <text style="stroke:none;fill:black;font-family:sans-serif;font-size:13;text-anchor:end;" transform="matrix(1 0 0 1 3036 1987)">Typeset at 100.0 points</text>
  <text style="stroke:none;fill:black;font-family:sans-serif;font-size:13;" transform="matrix(1 0 0 1 263 726)">Small</text>
  <text style="stroke:none;fill:black;font-family:sans-serif;font-size:13;" transform="matrix(1 0 0 1 263 1156)">Medium</text>
  <text style="stroke:none;fill:black;font-family:sans-serif;font-size:13;" transform="matrix(1 0 0 1 263 1586)">Large</text>
 </g>
 <g id="Guides">
  <g id="H-reference" style="fill:#27AAE1;stroke:none;" transform="matrix(1 0 0 1 339 696)">
   <path d="M0.993654 0L3.63775 0L29.3281-67.1323L30.0303-67.1323L30.0303-70.459L28.1226-70.459ZM11.6885-24.4799L46.9815-24.4799L46.2315-26.7285L12.4385-26.7285ZM55.1196 0L57.7637 0L30.6382-70.459L29.4326-70.459L29.4326-67.1323Z"/>
  </g>
  <line id="Baseline-S" style="fill:none;stroke:#27AAE1;opacity:1;stroke-width:0.5;" x1="263" x2="3036" y1="696" y2="696"/>
  <line id="Capline-S" style="fill:none;stroke:#27AAE1;opacity:1;stroke-width:0.5;" x1="263" x2="3036" y1="625.541" y2="625.541"/>
  <g id="H-reference" style="fill:#27AAE1;stroke:none;" transform="matrix(1 0 0 1 339 1126)">
   <path d="M0.993654 0L3.63775 0L29.3281-67.1323L30.0303-67.1323L30.0303-70.459L28.1226-70.459ZM11.6885-24.4799L46.9815-24.4799L46.2315-26.7285L12.4385-26.7285ZM55.1196 0L57.7637 0L30.6382-70.459L29.4326-70.459L29.4326-67.1323Z"/>
  </g>
  <line id="Baseline-M" style="fill:none;stroke:#27AAE1;opacity:1;stroke-width:0.5;" x1="263" x2="3036" y1="1126" y2="1126"/>
  <line id="Capline-M" style="fill:none;stroke:#27AAE1;opacity:1;stroke-width:0.5;" x1="263" x2="3036" y1="1055.54" y2="1055.54"/>
  <g id="H-reference" style="fill:#27AAE1;stroke:none;" transform="matrix(1 0 0 1 339 1556)">
   <path d="M0.993654 0L3.63775 0L29.3281-67.1323L30.0303-67.1323L30.0303-70.459L28.1226-70.459ZM11.6885-24.4799L46.9815-24.4799L46.2315-26.7285L12.4385-26.7285ZM55.1196 0L57.7637 0L30.6382-70.459L29.4326-70.459L29.4326-67.1323Z"/>
  </g>
  <line id="Baseline-L" style="fill:none;stroke:#27AAE1;opacity:1;stroke-width:0.5;" x1="263" x2="3036" y1="1556" y2="1556"/>
  <line id="Capline-L" style="fill:none;stroke:#27AAE1;opacity:1;stroke-width:0.5;" x1="263" x2="3036" y1="1485.54" y2="1485.54"/>
  <line id="left-margin-Regular-M" style="fill:none;stroke:#00AEEF;stroke-width:0.5;opacity:1.0;" x1="1391.32" x2="1391.32" y1="1030.79" y2="1150.12"/>
  <line id="right-margin-Regular-M" style="fill:none;stroke:#00AEEF;stroke-width:0.5;opacity:1.0;" x1="1508.37" x2="1508.37" y1="1030.79" y2="1150.12"/>
 </g>
 <g id="Symbols">
  
  <g id="Regular-M" transform="matrix(1 0 0 1 1391.32 1126)">
   <path d="M43.4077 0.0973937C39.6266 0.433887 36.5361 1.72673 34.163 3.97593C31.4622 6.53505 29.9568 9.53693 29.2041 13.8671C29.027 14.8766 29.0093 15.3193 29.0004 17.7545C29.0004 19.2598 29.0359 20.774 29.0713 21.1017L29.1421 21.7038L27.9644 20.9157C24.5109 18.6134 21.4116 17.232 18.4629 16.683C17.1435 16.4351 14.4515 16.4528 13.2649 16.7184C9.66975 17.5154 6.04802 19.8708 3.71913 22.9347C2.78934 24.1656 2.16063 25.2547 1.4965 26.8044C0.407321 29.3369 -0.0885644 31.8783 0.035407 34.2692C0.354191 40.7246 4.18845 45.4975 11.857 48.9687C12.4414 49.2343 12.9284 49.4734 12.9284 49.5C12.9284 49.5266 12.5477 49.7214 12.0872 49.9339C10.2453 50.784 7.83675 52.2805 6.24283 53.5556C5.15365 54.4234 3.57745 56.0262 2.86904 56.9914C1.46993 58.8775 0.628699 60.8168 0.203654 63.1368C0.0176968 64.1729 -1.33644e-05 66.8029 0.168234 67.9629C0.726105 71.7971 2.32888 75.0027 5.12709 77.8629C7.48255 80.2803 10.0417 81.7326 13.0878 82.3701C13.9113 82.5472 14.2921 82.5738 16.072 82.5738C17.8342 82.5738 18.2415 82.5472 19.1004 82.3701C22.2794 81.7326 25.2813 80.3246 28.23 78.0842C28.6817 77.7389 29.0624 77.4732 29.0801 77.491C29.0978 77.5087 29.0801 77.9249 29.0359 78.4119C28.9119 79.8907 28.9473 83.7958 29.089 84.8318C29.6291 88.8609 31.1522 91.9513 33.8796 94.5724C36.3059 96.9013 39.1041 98.265 42.4602 98.7698C46.1705 99.3276 50.3501 98.7609 53.2457 97.3175C54.6802 96.5914 55.5569 95.9538 56.8143 94.7053C59.1078 92.4118 60.56 89.649 61.2861 86.1601C61.6226 84.5308 61.72 83.2379 61.72 80.298C61.72 78.7395 61.7554 77.4821 61.7997 77.4821C61.844 77.4821 62.3133 77.7743 62.8358 78.1374C66.1299 80.36 69.0963 81.7148 72.0805 82.3701C72.8863 82.5384 73.2671 82.5649 74.9141 82.5649C76.5523 82.5649 76.9419 82.5384 77.7123 82.3701C80.0766 81.8565 82.1045 80.8736 83.9906 79.3328C85.3366 78.2436 86.9571 76.4106 87.9665 74.8433C90.9773 70.1944 91.5174 63.9338 89.3037 59.1963C87.5592 55.4506 84.2297 52.5196 79.0052 50.1198C78.3145 49.8011 77.7566 49.5266 77.7566 49.5C77.7566 49.4734 78.0577 49.314 78.4384 49.1458C80.2803 48.3046 82.8129 46.7461 84.4422 45.4532C88.9229 41.8758 91.0215 37.3951 90.6054 32.3122C90.3486 29.2572 89.4719 26.7158 87.7629 24.1036C85.5048 20.6589 82.6003 18.2592 79.3771 17.1877C77.6946 16.6299 76.9419 16.5236 74.6485 16.5236C72.8774 16.5236 72.417 16.5502 71.5492 16.7184C68.2108 17.3471 65.8996 18.4363 62.9774 20.7386C62.3753 21.2168 61.8529 21.6064 61.8086 21.6064C61.7643 21.6064 61.72 19.9594 61.7023 17.9493C61.658 13.991 61.6049 13.4597 61.0559 11.547C59.9933 7.88988 57.6998 4.73747 54.5651 2.65652C51.457 0.584424 47.667 -0.283376 43.4077 0.0973937ZM46.9674 5.31305C52.006 5.79122 55.0521 8.40348 56.0882 13.1055C56.4424 14.7349 56.5221 15.7532 56.469 18.0113C56.4158 20.225 56.2564 21.5622 55.7783 23.7317C54.9636 27.4154 53.29 32.0554 51.2356 36.297C51.0673 36.6601 50.9434 36.9877 50.9699 37.0232C51.0496 37.156 53.3962 38.3514 53.4759 38.3071C53.5202 38.2806 53.8833 37.7847 54.2817 37.218C59.6568 29.5849 64.9876 24.626 69.9464 22.6425C72.8155 21.4913 75.7908 21.3851 78.102 22.3591C80.6611 23.4394 83.3442 26.2288 84.5219 29.0181C85.7262 31.9049 85.7262 35.2167 84.5308 37.7493C81.9451 43.1686 74.0995 46.5424 60.8345 47.9326L58.9307 48.1363L58.9041 49.5531L58.8864 50.9611L60.8522 51.1647C71.4341 52.2274 78.6598 54.6625 82.441 58.4436C84.6724 60.684 85.6908 63.4999 85.3808 66.5815C85.0798 69.5656 83.7781 72.1956 81.4757 74.4802C80.1298 75.8085 78.8281 76.5966 77.1545 77.0925C76.2158 77.3758 74.3474 77.4732 73.1342 77.3139C69.4328 76.818 65.7491 74.7193 61.782 70.8408C59.0812 68.202 56.9825 65.6783 54.2906 61.8263C53.839 61.1887 53.4494 60.6574 53.4139 60.6574C53.228 60.6574 50.9611 62.0654 50.9788 62.1716C50.9788 62.2425 51.3064 62.9686 51.6961 63.801C54.2375 69.176 55.8757 74.3917 56.3627 78.6333C56.5398 80.1829 56.5398 82.9103 56.3627 84.274C55.7428 89.0292 53.591 91.9159 49.7656 93.1379C46.808 94.0766 42.9118 93.9437 40.273 92.8014C37.28 91.5086 35.199 88.7192 34.4375 84.947C34.163 83.601 34.101 80.7762 34.3135 78.9875C34.8182 74.5422 36.4299 69.3531 39.1041 63.5442C39.4583 62.7649 39.7328 62.1097 39.7151 62.0742C39.6974 62.0388 39.1307 61.7023 38.4754 61.3215C37.4482 60.7371 37.2534 60.6486 37.1471 60.7548C37.0851 60.8257 36.6424 61.4367 36.1642 62.1185C33.7733 65.5543 31.9138 67.8035 29.3989 70.3183C26.707 73.028 24.6437 74.6042 22.2706 75.7908C20.1365 76.8534 18.4452 77.305 16.3819 77.367C14.7969 77.4201 13.8317 77.2696 12.6185 76.7825C9.6609 75.596 6.90696 72.6118 5.86206 69.4594C4.95884 66.7497 5.04739 63.7744 6.10115 61.4278C7.63308 58.0097 11.5559 55.2647 17.4445 53.4671C20.5969 52.5107 24.9802 51.6695 29.1775 51.2267C29.9125 51.147 30.7626 51.0585 31.0814 51.0231L31.657 50.9611V49.5443V48.1274L30.9486 48.0655C16.0454 46.6929 7.68621 42.9207 5.72038 36.6601C4.64006 33.2332 5.41045 29.3724 7.82789 26.1668C10.7766 22.2617 14.5223 20.9069 19.1093 22.1023C24.3604 23.466 30.2667 28.5931 36.1996 36.9523C36.7132 37.6696 37.1648 38.2806 37.2003 38.3071C37.28 38.3514 39.6266 37.156 39.7063 37.0232C39.7328 36.9877 39.6088 36.6601 39.4406 36.297C37.3065 31.8783 35.5709 26.9903 34.8005 23.2092C34.3046 20.7475 34.2249 19.9859 34.2249 17.4445C34.2249 15.3459 34.2427 14.9917 34.4286 14.0973C34.9156 11.6976 35.996 9.54578 37.4216 8.12011C39.6177 5.92405 42.9915 4.94113 46.9674 5.31305Z"/>
  </g>
  
 </g>
</svg>
