<?xml version="1.0" encoding="UTF-8"?>
<!--Generator: Apple Native CoreSVG 341-->
<!DOCTYPE svg
PUBLIC "-//W3C//DTD SVG 1.1//EN"
       "http://www.w3.org/Graphics/SVG/1.1/DTD/svg11.dtd">
<svg version="1.1" xmlns="http://www.w3.org/2000/svg" xmlns:xlink="http://www.w3.org/1999/xlink" viewBox="0 0 3300 2200">
 <!--glyph: "", point size: 100.0, font version: "21.1d1e1", template writer version: "138.0.0"-->
 <style>.defaults {-sfsymbols-variable-value-mode:color;-sfsymbols-draw-reverses-motion-groups:true}

.monochrome-0 {-sfsymbols-motion-group:0;-sfsymbols-layer-tags:58d1c91eda443fb}

.multicolor-0:systemRedColor {-sfsymbols-motion-group:0;-sfsymbols-layer-tags:58d1c91eda443fb}

.hierarchical-0:primary {-sfsymbols-motion-group:0;-sfsymbols-layer-tags:58d1c91eda443fb}

.SFSymbolsPreviewWireframe {fill:none;opacity:1.0;stroke:black;stroke-width:0.5}
</style>
 <g id="Notes">
  <rect height="2200" id="artboard" style="fill:white;opacity:1" width="3300" x="0" y="0"/>
  <line style="fill:none;stroke:black;opacity:1;stroke-width:0.5;" x1="263" x2="3036" y1="292" y2="292"/>
  <text style="stroke:none;fill:black;font-family:sans-serif;font-size:13;font-weight:bold;" transform="matrix(1 0 0 1 263 322)">Weight/Scale Variations</text>
  <text style="stroke:none;fill:black;font-family:sans-serif;font-size:13;text-anchor:middle;" transform="matrix(1 0 0 1 559.711 322)">Ultralight</text>
  <text style="stroke:none;fill:black;font-family:sans-serif;font-size:13;text-anchor:middle;" transform="matrix(1 0 0 1 856.422 322)">Thin</text>
  <text style="stroke:none;fill:black;font-family:sans-serif;font-size:13;text-anchor:middle;" transform="matrix(1 0 0 1 1153.13 322)">Light</text>
  <text style="stroke:none;fill:black;font-family:sans-serif;font-size:13;text-anchor:middle;" transform="matrix(1 0 0 1 1449.84 322)">Regular</text>
  <text style="stroke:none;fill:black;font-family:sans-serif;font-size:13;text-anchor:middle;" transform="matrix(1 0 0 1 1746.56 322)">Medium</text>
  <text style="stroke:none;fill:black;font-family:sans-serif;font-size:13;text-anchor:middle;" transform="matrix(1 0 0 1 2043.27 322)">Semibold</text>
  <text style="stroke:none;fill:black;font-family:sans-serif;font-size:13;text-anchor:middle;" transform="matrix(1 0 0 1 2339.98 322)">Bold</text>
  <text style="stroke:none;fill:black;font-family:sans-serif;font-size:13;text-anchor:middle;" transform="matrix(1 0 0 1 2636.69 322)">Heavy</text>
  <text style="stroke:none;fill:black;font-family:sans-serif;font-size:13;text-anchor:middle;" transform="matrix(1 0 0 1 2933.4 322)">Black</text>
  <line style="fill:none;stroke:black;opacity:1;stroke-width:0.5;" x1="263" x2="3036" y1="1903" y2="1903"/>
  <g transform="matrix(0.2 0 0 0.2 263 1933)">
   <path d="m46.2402 4.15039c21.7773 0 39.4531-17.627 39.4531-39.4043s-17.6758-39.4043-39.4531-39.4043c-21.7285 0-39.4043 17.627-39.4043 39.4043s17.6758 39.4043 39.4043 39.4043Zm0-7.42188c-17.6758 0-31.9336-14.3066-31.9336-31.9824s14.2578-31.9824 31.9336-31.9824 31.9824 14.3066 31.9824 31.9824-14.3066 31.9824-31.9824 31.9824Zm3.61328-17.7734v-28.4668c0-2.24609-1.46484-3.75977-3.71094-3.75977-2.14844 0-3.61328 1.51367-3.61328 3.75977v28.4668c0 2.19727 1.46484 3.71094 3.61328 3.71094 2.24609 0 3.71094-1.51367 3.71094-3.71094Zm-17.8223-10.5957h28.418c2.19727 0 3.71094-1.46484 3.71094-3.61328 0-2.19727-1.51367-3.71094-3.71094-3.71094h-28.418c-2.24609 0-3.75977 1.51367-3.75977 3.71094 0 2.14844 1.51367 3.61328 3.75977 3.61328Z"/>
  </g>
  <g transform="matrix(0.2 0 0 0.2 281.506 1933)">
   <path d="m58.5449 14.5508c27.4902 0 49.8047-22.3145 49.8047-49.8047s-22.3145-49.8047-49.8047-49.8047-49.8047 22.3145-49.8047 49.8047 22.3145 49.8047 49.8047 49.8047Zm0-8.30078c-22.9492 0-41.5039-18.5547-41.5039-41.5039s18.5547-41.5039 41.5039-41.5039 41.5039 18.5547 41.5039 41.5039-18.5547 41.5039-41.5039 41.5039Zm4.05273-23.0957v-36.9141c0-2.49023-1.70898-4.19922-4.15039-4.19922-2.39258 0-4.05273 1.70898-4.05273 4.19922v36.9141c0 2.44141 1.66016 4.15039 4.05273 4.15039 2.44141 0 4.15039-1.66016 4.15039-4.15039Zm-22.5586-14.4043h36.9629c2.44141 0 4.15039-1.61133 4.15039-4.00391 0-2.44141-1.70898-4.15039-4.15039-4.15039h-36.9629c-2.49023 0-4.15039 1.70898-4.15039 4.15039 0 2.39258 1.66016 4.00391 4.15039 4.00391Z"/>
  </g>
  <g transform="matrix(0.2 0 0 0.2 304.924 1933)">
   <path d="m74.8535 28.3203c35.1074 0 63.623-28.4668 63.623-63.5742s-28.5156-63.623-63.623-63.623-63.5742 28.5156-63.5742 63.623 28.4668 63.5742 63.5742 63.5742Zm0-9.08203c-30.127 0-54.4922-24.3652-54.4922-54.4922s24.3652-54.4922 54.4922-54.4922 54.4922 24.3652 54.4922 54.4922-24.3652 54.4922-54.4922 54.4922Zm4.44336-30.3223v-48.4863c0-2.73438-1.85547-4.63867-4.54102-4.63867-2.58789 0-4.44336 1.9043-4.44336 4.63867v48.4863c0 2.68555 1.85547 4.58984 4.44336 4.58984 2.68555 0 4.54102-1.85547 4.54102-4.58984Zm-28.7109-19.7754h48.4863c2.68555 0 4.58984-1.80664 4.58984-4.39453 0-2.73438-1.85547-4.58984-4.58984-4.58984h-48.4863c-2.73438 0-4.58984 1.85547-4.58984 4.58984 0 2.58789 1.85547 4.39453 4.58984 4.39453Z"/>
  </g>
  <text style="stroke:none;fill:black;font-family:sans-serif;font-size:13;font-weight:bold;" transform="matrix(1 0 0 1 263 1953)">Design Variations</text>
  <text style="stroke:none;fill:black;font-family:sans-serif;font-size:13;" transform="matrix(1 0 0 1 263 1971)">Symbols are supported in up to nine weights and three scales.</text>
  <text style="stroke:none;fill:black;font-family:sans-serif;font-size:13;" transform="matrix(1 0 0 1 263 1989)">For optimal layout with text and other symbols, vertically align</text>
  <text style="stroke:none;fill:black;font-family:sans-serif;font-size:13;" transform="matrix(1 0 0 1 263 2007)">symbols with the adjacent text.</text>
  <line style="fill:none;stroke:#00AEEF;stroke-width:0.5;opacity:1.0;" x1="776" x2="776" y1="1919" y2="1933"/>
  <g transform="matrix(0.2 0 0 0.2 776 1933)">
   <path d="m16.5527 0.78125c2.58789 0 3.85742-0.976562 4.78516-3.71094l20.5566-57.5195h0.244141l20.6055 57.5195c0.927734 2.73438 2.19727 3.71094 4.73633 3.71094 2.58789 0 4.24805-1.5625 4.24805-4.00391 0-0.830078-0.146484-1.61133-0.537109-2.63672l-22.9004-60.9863c-1.12305-2.97852-3.125-4.49219-6.25-4.49219-3.02734 0-5.07812 1.46484-6.15234 4.44336l-22.9004 61.084c-0.390625 1.02539-0.537109 1.80664-0.537109 2.63672 0 2.44141 1.5625 3.95508 4.10156 3.95508Zm10.2051-20.9473h30.6641c2.00195 0 3.66211-1.66016 3.66211-3.66211 0-2.05078-1.66016-3.66211-3.66211-3.66211h-30.6641c-2.00195 0-3.66211 1.61133-3.66211 3.66211 0 2.00195 1.66016 3.66211 3.66211 3.66211Z"/>
  </g>
  <line style="fill:none;stroke:#00AEEF;stroke-width:0.5;opacity:1.0;" x1="792.836" x2="792.836" y1="1919" y2="1933"/>
  <text style="stroke:none;fill:black;font-family:sans-serif;font-size:13;font-weight:bold;" transform="matrix(1 0 0 1 776 1953)">Margins</text>
  <text style="stroke:none;fill:black;font-family:sans-serif;font-size:13;" transform="matrix(1 0 0 1 776 1971)">Leading and trailing margins on the left and right side of each symbol</text>
  <text style="stroke:none;fill:black;font-family:sans-serif;font-size:13;" transform="matrix(1 0 0 1 776 1989)">can be adjusted by modifying the x-location of the margin guidelines.</text>
  <text style="stroke:none;fill:black;font-family:sans-serif;font-size:13;" transform="matrix(1 0 0 1 776 2007)">Modifications are automatically applied proportionally to all</text>
  <text style="stroke:none;fill:black;font-family:sans-serif;font-size:13;" transform="matrix(1 0 0 1 776 2025)">scales and weights.</text>
  <g transform="matrix(0.2 0 0 0.2 1289 1933)">
   <path d="m14.209 13.1348 7.86133 7.86133c4.29688 4.39453 9.32617 4.10156 13.8672-1.02539l60.6934-68.2129-4.88281-4.88281-60.2539 67.6758c-1.80664 1.95312-3.4668 2.44141-5.81055 0.0976562l-5.17578-5.12695c-2.29492-2.29492-1.80664-3.95508 0.195312-5.81055l67.4805-62.1582-4.88281-4.83398-68.0664 62.5977c-4.98047 4.58984-5.32227 9.47266-1.02539 13.8184Zm44.873-97.4609c-2.05078 2.00195-2.24609 4.88281-1.07422 6.78711 1.12305 1.80664 3.4668 3.02734 6.5918 2.24609 5.85938-1.66016 12.5977-2.39258 18.8965 0.927734l-2.68555 7.12891c-1.61133 4.00391-0.732422 6.88477 1.70898 9.42383l10.2539 10.3027c2.34375 2.39258 4.54102 2.44141 7.08008 1.95312l4.44336-0.732422 2.58789 2.53906-0.195312 2.24609c-0.0976562 2.29492 0.537109 4.29688 2.7832 6.49414l3.36914 3.32031c2.29492 2.29492 5.51758 2.49023 7.8125 0.195312l12.9883-13.0371c2.29492-2.34375 2.14844-5.37109-0.195312-7.66602l-3.41797-3.41797c-2.19727-2.19727-4.05273-3.02734-6.34766-2.88086l-2.34375 0.244141-2.44141-2.44141 1.02539-4.6875c0.634766-2.73438-0.244141-4.98047-2.88086-7.61719l-11.2793-11.1816c-12.9395-12.8418-35.5957-11.0352-46.6797-0.146484Zm7.08008 2.05078c8.78906-6.39648 25.9766-5.66406 33.6914 1.95312l12.3047 12.207c1.02539 1.02539 1.2207 1.80664 0.927734 3.32031l-1.46484 6.64062 6.73828 6.68945 4.39453-0.244141c1.12305-0.0488281 1.51367 0.0488281 2.34375 0.878906l2.53906 2.49023-10.8398 10.8398-2.49023-2.49023c-0.830078-0.878906-0.976562-1.2207-0.927734-2.39258l0.292969-4.3457-6.68945-6.73828-6.83594 1.17188c-1.41602 0.292969-2.05078 0.195312-3.17383-0.878906l-8.93555-8.88672c-1.07422-1.02539-1.17188-1.70898-0.488281-3.36914l4.58984-11.4746c-6.10352-6.34766-17.041-7.51953-25.5859-4.58984-0.683594 0.244141-0.927734-0.390625-0.390625-0.78125Z"/>
  </g>
  <text style="stroke:none;fill:black;font-family:sans-serif;font-size:13;font-weight:bold;" transform="matrix(1 0 0 1 1289 1953)">Exporting</text>
  <text style="stroke:none;fill:black;font-family:sans-serif;font-size:13;" transform="matrix(1 0 0 1 1289 1971)">Symbols should be outlined when exporting to ensure the</text>
  <text style="stroke:none;fill:black;font-family:sans-serif;font-size:13;" transform="matrix(1 0 0 1 1289 1989)">design is preserved when submitting to Xcode.</text>
  <text id="template-version" style="stroke:none;fill:black;font-family:sans-serif;font-size:13;text-anchor:end;" transform="matrix(1 0 0 1 3036 1933)">Template v.7.0</text>
  <text style="stroke:none;fill:black;font-family:sans-serif;font-size:13;text-anchor:end;" transform="matrix(1 0 0 1 3036 1951)">Requires Xcode 26 or greater</text>
  <text id="descriptive-name" style="stroke:none;fill:black;font-family:sans-serif;font-size:13;text-anchor:end;" transform="matrix(1 0 0 1 3036 1969)">Generated from mich.star</text>
  <text style="stroke:none;fill:black;font-family:sans-serif;font-size:13;text-anchor:end;" transform="matrix(1 0 0 1 3036 1987)">Typeset at 100.0 points</text>
  <text style="stroke:none;fill:black;font-family:sans-serif;font-size:13;" transform="matrix(1 0 0 1 263 726)">Small</text>
  <text style="stroke:none;fill:black;font-family:sans-serif;font-size:13;" transform="matrix(1 0 0 1 263 1156)">Medium</text>
  <text style="stroke:none;fill:black;font-family:sans-serif;font-size:13;" transform="matrix(1 0 0 1 263 1586)">Large</text>
 </g>
 <g id="Guides">
  <g id="H-reference" style="fill:#27AAE1;stroke:none;" transform="matrix(1 0 0 1 339 696)">
   <path d="M0.993654 0L3.63775 0L29.3281-67.1323L30.0303-67.1323L30.0303-70.459L28.1226-70.459ZM11.6885-24.4799L46.9815-24.4799L46.2315-26.7285L12.4385-26.7285ZM55.1196 0L57.7637 0L30.6382-70.459L29.4326-70.459L29.4326-67.1323Z"/>
  </g>
  <line id="Baseline-S" style="fill:none;stroke:#27AAE1;opacity:1;stroke-width:0.5;" x1="263" x2="3036" y1="696" y2="696"/>
  <line id="Capline-S" style="fill:none;stroke:#27AAE1;opacity:1;stroke-width:0.5;" x1="263" x2="3036" y1="625.541" y2="625.541"/>
  <g id="H-reference" style="fill:#27AAE1;stroke:none;" transform="matrix(1 0 0 1 339 1126)">
   <path d="M0.993654 0L3.63775 0L29.3281-67.1323L30.0303-67.1323L30.0303-70.459L28.1226-70.459ZM11.6885-24.4799L46.9815-24.4799L46.2315-26.7285L12.4385-26.7285ZM55.1196 0L57.7637 0L30.6382-70.459L29.4326-70.459L29.4326-67.1323Z"/>
  </g>
  <line id="Baseline-M" style="fill:none;stroke:#27AAE1;opacity:1;stroke-width:0.5;" x1="263" x2="3036" y1="1126" y2="1126"/>
  <line id="Capline-M" style="fill:none;stroke:#27AAE1;opacity:1;stroke-width:0.5;" x1="263" x2="3036" y1="1055.54" y2="1055.54"/>
  <g id="H-reference" style="fill:#27AAE1;stroke:none;" transform="matrix(1 0 0 1 339 1556)">
   <path d="M0.993654 0L3.63775 0L29.3281-67.1323L30.0303-67.1323L30.0303-70.459L28.1226-70.459ZM11.6885-24.4799L46.9815-24.4799L46.2315-26.7285L12.4385-26.7285ZM55.1196 0L57.7637 0L30.6382-70.459L29.4326-70.459L29.4326-67.1323Z"/>
  </g>
  <line id="Baseline-L" style="fill:none;stroke:#27AAE1;opacity:1;stroke-width:0.5;" x1="263" x2="3036" y1="1556" y2="1556"/>
  <line id="Capline-L" style="fill:none;stroke:#27AAE1;opacity:1;stroke-width:0.5;" x1="263" x2="3036" y1="1485.54" y2="1485.54"/>
  <line id="right-margin-Black-S" style="fill:none;stroke:#00AEEF;stroke-width:0.5;opacity:1.0;" x1="2986.13" x2="2986.13" y1="600.785" y2="720.121"/>
  <line id="left-margin-Black-S" style="fill:none;stroke:#00AEEF;stroke-width:0.5;opacity:1.0;" x1="2880.67" x2="2880.67" y1="600.785" y2="720.121"/>
  <line id="right-margin-Regular-S" style="fill:none;stroke:#00AEEF;stroke-width:0.5;opacity:1.0;" x1="1499.75" x2="1499.75" y1="600.785" y2="720.121"/>
  <line id="left-margin-Regular-S" style="fill:none;stroke:#00AEEF;stroke-width:0.5;opacity:1.0;" x1="1399.94" x2="1399.94" y1="600.785" y2="720.121"/>
  <line id="right-margin-Ultralight-S" style="fill:none;stroke:#00AEEF;stroke-width:0.5;opacity:1.0;" x1="606.412" x2="606.412" y1="600.785" y2="720.121"/>
  <line id="left-margin-Ultralight-S" style="fill:none;stroke:#00AEEF;stroke-width:0.5;opacity:1.0;" x1="513.01" x2="513.01" y1="600.785" y2="720.121"/>
 </g>
 <g id="Symbols">
  <g id="Black-S" transform="matrix(1 0 0 1 2880.67 696)">
   <path class="monochrome-0 multicolor-0:systemRedColor hierarchical-0:primary SFSymbolsPreviewWireframe" d="M50.63-78.923C47.29-78.627 44.56-77.491 42.47-75.514C40.08-73.264 38.76-70.625 38.09-66.819C37.93-65.932 37.92-65.543 37.91-63.402C37.91-62.079 37.94-60.748 37.97-60.46L38.04-59.93L37-60.623C33.95-62.647 31.21-63.861 28.61-64.344C27.45-64.562 25.07-64.546 24.02-64.313C20.85-63.612 17.65-61.542 15.6-58.848C14.78-57.766 14.22-56.809 13.64-55.447C12.67-53.22 12.24-50.986 12.35-48.885C12.63-43.21 16.01-39.015 22.78-35.963C23.3-35.73 23.73-35.52 23.73-35.496C23.73-35.473 23.39-35.302 22.98-35.115C21.36-34.367 19.23-33.052 17.83-31.931C16.86-31.168 15.47-29.759 14.85-28.911C13.61-27.253 12.87-25.548 12.49-23.509C12.33-22.598 12.32-20.286 12.46-19.266C12.96-15.896 14.37-13.078 16.84-10.564C18.92-8.439 21.18-7.162 23.87-6.602C24.59-6.446 24.93-6.423 26.5-6.423C28.06-6.423 28.42-6.446 29.17-6.602C31.98-7.162 34.63-8.4 37.23-10.369C37.63-10.673 37.97-10.906 37.98-10.891C38-10.875 37.98-10.509 37.94-10.081C37.83-8.781 37.86-5.349 37.99-4.438C38.47-0.896 39.81 1.82 42.22 4.125C44.36 6.172 46.83 7.37 49.79 7.814C53.07 8.305 56.75 7.806 59.31 6.538C60.58 5.899 61.35 5.339 62.46 4.241C64.48 2.225 65.77-0.203 66.41-3.27C66.7-4.703 66.79-5.839 66.79-8.423C66.79-9.793 66.82-10.899 66.86-10.899C66.9-10.899 67.31-10.642 67.77-10.323C70.68-8.369 73.3-7.178 75.93-6.602C76.65-6.454 76.98-6.431 78.43-6.431C79.88-6.431 80.22-6.454 80.9-6.602C82.99-7.053 84.78-7.917 86.45-9.272C87.63-10.229 89.06-11.841 89.96-13.218C92.61-17.305 93.09-22.808 91.14-26.973C89.6-30.265 86.66-32.842 82.05-34.951C81.44-35.232 80.94-35.473 80.94-35.496C80.94-35.52 81.21-35.66 81.55-35.808C83.17-36.547 85.41-37.917 86.84-39.053C90.8-42.198 92.65-46.137 92.28-50.605C92.06-53.29 91.28-55.524 89.78-57.821C87.78-60.849 85.22-62.958 82.37-63.9C80.89-64.39 80.22-64.484 78.2-64.484C76.64-64.484 76.23-64.461 75.47-64.313C72.52-63.76 70.48-62.803 67.9-60.779C67.37-60.358 66.91-60.016 66.87-60.016C66.83-60.016 66.79-61.464 66.77-63.231C66.74-66.71 66.69-67.177 66.2-68.859C65.27-72.073 63.24-74.844 60.47-76.674C57.73-78.495 54.39-79.258 50.63-78.923ZM53.77-74.338C58.22-73.918 60.9-71.622 61.82-67.489C62.13-66.056 62.2-65.161 62.16-63.176C62.11-61.23 61.97-60.055 61.55-58.148C60.83-54.91 59.35-50.831 57.54-47.102C57.39-46.783 57.28-46.495 57.3-46.464C57.37-46.347 59.44-45.296 59.51-45.335C59.55-45.359 59.87-45.794 60.22-46.293C64.97-53.002 69.67-57.361 74.05-59.105C76.58-60.117 79.21-60.21 81.25-59.354C83.51-58.405 85.88-55.953 86.91-53.501C87.98-50.963 87.98-48.052 86.92-45.826C84.64-41.062 77.72-38.096 66.01-36.874L64.33-36.695L64.3-35.449L64.29-34.212L66.02-34.033C75.36-33.099 81.74-30.958 85.08-27.634C87.05-25.665 87.95-23.19 87.67-20.481C87.41-17.858 86.26-15.546 84.23-13.537C83.04-12.37 81.89-11.677 80.41-11.241C79.58-10.992 77.93-10.906 76.86-11.047C73.6-11.482 70.35-13.327 66.84-16.737C64.46-19.056 62.61-21.275 60.23-24.661C59.83-25.221 59.49-25.688 59.46-25.688C59.29-25.688 57.29-24.451 57.31-24.357C57.31-24.295 57.6-23.657 57.94-22.925C60.19-18.2 61.63-13.615 62.06-9.887C62.22-8.525 62.22-6.127 62.06-4.928C61.51-0.748 59.62 1.789 56.24 2.864C53.63 3.689 50.19 3.572 47.86 2.568C45.22 1.431 43.38-1.021 42.71-4.337C42.47-5.52 42.41-8.003 42.6-9.575C43.05-13.483 44.47-18.044 46.83-23.151C47.14-23.836 47.38-24.412 47.37-24.443C47.35-24.474 46.85-24.77 46.27-25.104C45.37-25.618 45.2-25.696 45.1-25.603C45.05-25.54 44.66-25.003 44.23-24.404C42.12-21.384 40.48-19.407 38.26-17.196C35.89-14.814 34.07-13.428 31.97-12.385C30.09-11.451 28.6-11.054 26.77-11C25.37-10.953 24.52-11.085 23.45-11.514C20.84-12.557 18.41-15.18 17.49-17.951C16.69-20.333 16.77-22.948 17.7-25.011C19.05-28.016 22.51-30.429 27.71-32.009C30.49-32.85 34.36-33.589 38.07-33.978C38.72-34.048 39.47-34.126 39.75-34.157L40.26-34.212L40.26-36.703L39.63-36.757C26.48-37.964 19.1-41.28 17.36-46.783C16.41-49.795 17.09-53.189 19.22-56.007C21.83-59.44 25.13-60.631 29.18-59.58C33.82-58.381 39.03-53.874 44.27-46.526C44.72-45.896 45.12-45.359 45.15-45.335C45.22-45.296 47.29-46.347 47.36-46.464C47.38-46.495 47.27-46.783 47.13-47.102C45.24-50.986 43.71-55.283 43.03-58.607C42.59-60.771 42.52-61.44 42.52-63.674C42.52-65.519 42.54-65.831 42.7-66.617C43.13-68.726 44.09-70.618 45.34-71.871C47.28-73.801 50.26-74.665 53.77-74.338Z"/>
  </g>
  <g id="Regular-S" transform="matrix(1 0 0 1 1399.94 696)">
   <path class="monochrome-0 multicolor-0:systemRedColor hierarchical-0:primary SFSymbolsPreviewWireframe" d="M48.36-78.923C45.02-78.627 42.29-77.491 40.2-75.514C37.81-73.264 36.49-70.625 35.82-66.819C35.66-65.932 35.65-65.543 35.64-63.402C35.64-62.079 35.67-60.748 35.7-60.46L35.77-59.93L34.73-60.623C31.68-62.647 28.94-63.861 26.34-64.344C25.18-64.562 22.8-64.546 21.75-64.313C18.58-63.612 15.38-61.542 13.33-58.848C12.51-57.766 11.95-56.809 11.37-55.447C10.4-53.22 9.97-50.986 10.08-48.885C10.36-43.21 13.74-39.015 20.51-35.963C21.03-35.73 21.46-35.52 21.46-35.496C21.46-35.473 21.12-35.302 20.71-35.115C19.09-34.367 16.96-33.052 15.56-31.931C14.59-31.168 13.2-29.759 12.58-28.911C11.34-27.253 10.6-25.548 10.23-23.509C10.06-22.598 10.05-20.286 10.19-19.266C10.69-15.896 12.1-13.078 14.57-10.564C16.65-8.439 18.91-7.162 21.6-6.602C22.32-6.446 22.66-6.423 24.23-6.423C25.79-6.423 26.15-6.446 26.9-6.602C29.71-7.162 32.36-8.4 34.96-10.369C35.36-10.673 35.7-10.906 35.71-10.891C35.73-10.875 35.71-10.509 35.67-10.081C35.56-8.781 35.59-5.349 35.72-4.438C36.2-0.896 37.54 1.82 39.95 4.125C42.09 6.172 44.56 7.37 47.52 7.814C50.8 8.305 54.48 7.806 57.04 6.538C58.31 5.899 59.08 5.339 60.19 4.241C62.21 2.225 63.5-0.203 64.14-3.27C64.43-4.703 64.52-5.839 64.52-8.423C64.52-9.793 64.55-10.899 64.59-10.899C64.63-10.899 65.04-10.642 65.5-10.323C68.41-8.369 71.03-7.178 73.66-6.602C74.38-6.454 74.71-6.431 76.17-6.431C77.61-6.431 77.95-6.454 78.63-6.602C80.72-7.053 82.51-7.917 84.18-9.272C85.36-10.229 86.79-11.841 87.69-13.218C90.34-17.305 90.82-22.808 88.87-26.973C87.33-30.265 84.39-32.842 79.78-34.951C79.17-35.232 78.67-35.473 78.67-35.496C78.67-35.52 78.94-35.66 79.28-35.808C80.9-36.547 83.14-37.917 84.57-39.053C88.53-42.198 90.38-46.137 90.01-50.605C89.79-53.29 89.01-55.524 87.51-57.821C85.51-60.849 82.95-62.958 80.1-63.9C78.62-64.39 77.95-64.484 75.93-64.484C74.37-64.484 73.96-64.461 73.2-64.313C70.25-63.76 68.21-62.803 65.63-60.779C65.1-60.358 64.64-60.016 64.6-60.016C64.56-60.016 64.52-61.464 64.5-63.231C64.47-66.71 64.42-67.177 63.93-68.859C63-72.073 60.97-74.844 58.2-76.674C55.46-78.495 52.12-79.258 48.36-78.923ZM51.5-74.338C55.95-73.918 58.63-71.622 59.55-67.489C59.86-66.056 59.93-65.161 59.89-63.176C59.84-61.23 59.7-60.055 59.28-58.148C58.56-54.91 57.08-50.831 55.27-47.102C55.12-46.783 55.01-46.495 55.03-46.464C55.1-46.347 57.17-45.296 57.24-45.335C57.28-45.359 57.6-45.794 57.95-46.293C62.7-53.002 67.4-57.361 71.78-59.105C74.31-60.117 76.94-60.21 78.98-59.354C81.24-58.405 83.61-55.953 84.65-53.501C85.71-50.963 85.71-48.052 84.65-45.826C82.37-41.062 75.45-38.096 63.74-36.874L62.06-36.695L62.03-35.449L62.02-34.212L63.75-34.033C73.09-33.099 79.47-30.958 82.81-27.634C84.78-25.665 85.68-23.19 85.4-20.481C85.14-17.858 83.99-15.546 81.96-13.537C80.77-12.37 79.62-11.677 78.14-11.241C77.31-10.992 75.66-10.906 74.59-11.047C71.33-11.482 68.08-13.327 64.57-16.737C62.19-19.056 60.34-21.275 57.96-24.661C57.56-25.221 57.22-25.688 57.19-25.688C57.02-25.688 55.02-24.451 55.04-24.357C55.04-24.295 55.33-23.657 55.67-22.925C57.92-18.2 59.36-13.615 59.79-9.887C59.95-8.525 59.95-6.127 59.79-4.928C59.24-0.748 57.35 1.789 53.97 2.864C51.36 3.689 47.92 3.572 45.59 2.568C42.95 1.431 41.11-1.021 40.44-4.337C40.2-5.52 40.14-8.003 40.33-9.575C40.78-13.483 42.2-18.044 44.56-23.151C44.87-23.836 45.11-24.412 45.1-24.443C45.08-24.474 44.58-24.77 44-25.104C43.1-25.618 42.93-25.696 42.83-25.603C42.78-25.54 42.39-25.003 41.96-24.404C39.85-21.384 38.21-19.407 35.99-17.196C33.62-14.814 31.8-13.428 29.7-12.385C27.82-11.451 26.33-11.054 24.5-11C23.11-10.953 22.25-11.085 21.18-11.514C18.57-12.557 16.14-15.18 15.22-17.951C14.42-20.333 14.5-22.948 15.43-25.011C16.78-28.016 20.24-30.429 25.44-32.009C28.22-32.85 32.09-33.589 35.8-33.978C36.45-34.048 37.2-34.126 37.48-34.157L37.99-34.212L37.99-36.703L37.36-36.757C24.21-37.964 16.83-41.28 15.09-46.783C14.14-49.795 14.82-53.189 16.95-56.007C19.56-59.44 22.86-60.631 26.91-59.58C31.55-58.381 36.76-53.874 42-46.526C42.45-45.896 42.85-45.359 42.88-45.335C42.95-45.296 45.02-46.347 45.09-46.464C45.11-46.495 45-46.783 44.86-47.102C42.97-50.986 41.44-55.283 40.76-58.607C40.32-60.771 40.25-61.44 40.25-63.674C40.25-65.519 40.27-65.831 40.43-66.617C40.86-68.726 41.82-70.618 43.07-71.871C45.01-73.801 47.99-74.665 51.5-74.338Z"/>
  </g>
  <g id="Ultralight-S" transform="matrix(1 0 0 1 513.01 696)">
   <path class="monochrome-0 multicolor-0:systemRedColor hierarchical-0:primary SFSymbolsPreviewWireframe" d="M45.287-78.923C41.95-78.627 39.222-77.491 37.128-75.514C34.744-73.264 33.416-70.625 32.751-66.819C32.595-65.932 32.579-65.543 32.571-63.402C32.571-62.079 32.603-60.748 32.634-60.46L32.696-59.93L31.657-60.623C28.609-62.647 25.873-63.861 23.271-64.344C22.106-64.562 19.73-64.546 18.683-64.313C15.51-63.612 12.313-61.542 10.258-58.848C9.437-57.766 8.882-56.809 8.296-55.447C7.335-53.22 6.897-50.986 7.007-48.885C7.288-43.21 10.672-39.015 17.44-35.963C17.956-35.73 18.386-35.52 18.386-35.496C18.386-35.473 18.05-35.302 17.644-35.115C16.018-34.367 13.892-33.052 12.485-31.931C11.524-31.168 10.133-29.759 9.508-28.911C8.273-27.253 7.53-25.548 7.155-23.509C6.991-22.598 6.975-20.286 7.124-19.266C7.616-15.896 9.031-13.078 11.501-10.564C13.58-8.439 15.838-7.162 18.527-6.602C19.254-6.446 19.59-6.423 21.161-6.423C22.716-6.423 23.076-6.446 23.834-6.602C26.639-7.162 29.289-8.4 31.891-10.369C32.29-10.673 32.626-10.906 32.642-10.891C32.657-10.875 32.642-10.509 32.603-10.081C32.493-8.781 32.525-5.349 32.65-4.438C33.126-0.896 34.471 1.82 36.878 4.125C39.019 6.172 41.489 7.37 44.451 7.814C47.726 8.305 51.415 7.806 53.97 6.538C55.237 5.899 56.01 5.339 57.12 4.241C59.144 2.225 60.426-0.203 61.067-3.27C61.364-4.703 61.45-5.839 61.45-8.423C61.45-9.793 61.481-10.899 61.52-10.899C61.559-10.899 61.974-10.642 62.435-10.323C65.342-8.369 67.96-7.178 70.594-6.602C71.305-6.454 71.641-6.431 73.095-6.431C74.541-6.431 74.885-6.454 75.565-6.602C77.652-7.053 79.441-7.917 81.106-9.272C82.294-10.229 83.724-11.841 84.615-13.218C87.273-17.305 87.749-22.808 85.795-26.973C84.256-30.265 81.317-32.842 76.706-34.951C76.096-35.232 75.604-35.473 75.604-35.496C75.604-35.52 75.87-35.66 76.206-35.808C77.831-36.547 80.067-37.917 81.505-39.053C85.459-42.198 87.312-46.137 86.944-50.605C86.718-53.29 85.944-55.524 84.436-57.821C82.443-60.849 79.879-62.958 77.034-63.9C75.549-64.39 74.885-64.484 72.861-64.484C71.298-64.484 70.891-64.461 70.125-64.313C67.179-63.76 65.139-62.803 62.56-60.779C62.028-60.358 61.567-60.016 61.528-60.016C61.489-60.016 61.45-61.464 61.434-63.231C61.395-66.71 61.348-67.177 60.864-68.859C59.926-72.073 57.902-74.844 55.135-76.674C52.392-78.495 49.047-79.258 45.287-78.923ZM48.429-74.338C52.876-73.918 55.565-71.622 56.479-67.489C56.792-66.056 56.862-65.161 56.815-63.176C56.768-61.23 56.628-60.055 56.206-58.148C55.487-54.91 54.01-50.831 52.196-47.102C52.048-46.783 51.938-46.495 51.962-46.464C52.032-46.347 54.103-45.296 54.174-45.335C54.213-45.359 54.533-45.794 54.885-46.293C59.629-53.002 64.334-57.361 68.711-59.105C71.243-60.117 73.869-60.21 75.909-59.354C78.167-58.405 80.536-55.953 81.575-53.501C82.638-50.963 82.638-48.052 81.583-45.826C79.301-41.062 72.376-38.096 60.668-36.874L58.988-36.695L58.965-35.449L58.949-34.212L60.684-34.033C70.024-33.099 76.401-30.958 79.738-27.634C81.708-25.665 82.607-23.19 82.333-20.481C82.067-17.858 80.919-15.546 78.887-13.537C77.699-12.37 76.55-11.677 75.073-11.241C74.244-10.992 72.595-10.906 71.524-11.047C68.257-11.482 65.006-13.327 61.505-16.737C59.121-19.056 57.269-21.275 54.893-24.661C54.494-25.221 54.15-25.688 54.119-25.688C53.955-25.688 51.954-24.451 51.97-24.357C51.97-24.295 52.259-23.657 52.603-22.925C54.846-18.2 56.292-13.615 56.722-9.887C56.878-8.525 56.878-6.127 56.722-4.928C56.174-0.748 54.275 1.789 50.899 2.864C48.289 3.689 44.85 3.572 42.521 2.568C39.879 1.431 38.042-1.021 37.37-4.337C37.128-5.52 37.073-8.003 37.261-9.575C37.706-13.483 39.129-18.044 41.489-23.151C41.802-23.836 42.044-24.412 42.028-24.443C42.013-24.474 41.512-24.77 40.934-25.104C40.027-25.618 39.856-25.696 39.762-25.603C39.707-25.54 39.316-25.003 38.894-24.404C36.784-21.384 35.143-19.407 32.923-17.196C30.547-14.814 28.726-13.428 26.632-12.385C24.748-11.451 23.255-11.054 21.434-11C20.035-10.953 19.183-11.085 18.113-11.514C15.502-12.557 13.072-15.18 12.149-17.951C11.352-20.333 11.43-22.948 12.36-25.011C13.712-28.016 17.175-30.429 22.372-32.009C25.154-32.85 29.023-33.589 32.728-33.978C33.376-34.048 34.127-34.126 34.408-34.157L34.916-34.212L34.916-36.703L34.291-36.757C21.137-37.964 13.759-41.28 12.024-46.783C11.071-49.795 11.751-53.189 13.884-56.007C16.487-59.44 19.793-60.631 23.841-59.58C28.476-58.381 33.689-53.874 38.925-46.526C39.379-45.896 39.777-45.359 39.809-45.335C39.879-45.296 41.95-46.347 42.02-46.464C42.044-46.495 41.934-46.783 41.786-47.102C39.902-50.986 38.371-55.283 37.691-58.607C37.253-60.771 37.183-61.44 37.183-63.674C37.183-65.519 37.198-65.831 37.362-66.617C37.792-68.726 38.746-70.618 40.004-71.871C41.942-73.801 44.92-74.665 48.429-74.338Z"/>
  </g>
 </g>
</svg>
