<?xml version="1.0" encoding="UTF-8"?>
<!--Generator: Apple Native CoreSVG 341-->
<!DOCTYPE svg
PUBLIC "-//W3C//DTD SVG 1.1//EN"
       "http://www.w3.org/Graphics/SVG/1.1/DTD/svg11.dtd">
<svg version="1.1" xmlns="http://www.w3.org/2000/svg" xmlns:xlink="http://www.w3.org/1999/xlink" viewBox="0 0 3300 2200">
 <!--glyph: "", point size: 100.0, font version: "21.1d1e1", template writer version: "138.0.0"-->
 <style>.defaults {-sfsymbols-variable-value-mode:color;-sfsymbols-draw-reverses-motion-groups:true}

.monochrome-0 {-sfsymbols-motion-group:0;-sfsymbols-layer-tags:59d73fe206987b1d 7f37d10e7e35507 link}

.multicolor-0:systemRedColor {-sfsymbols-motion-group:0;-sfsymbols-layer-tags:59d73fe206987b1d 7f37d10e7e35507 link}

.hierarchical-0:primary {-sfsymbols-motion-group:0;-sfsymbols-layer-tags:59d73fe206987b1d 7f37d10e7e35507 link}

.SFSymbolsPreviewWireframe {fill:none;opacity:1.0;stroke:black;stroke-width:0.5}
</style>
 <g id="Notes">
  <rect height="2200" id="artboard" style="fill:white;opacity:1" width="3300" x="0" y="0"/>
  <line style="fill:none;stroke:black;opacity:1;stroke-width:0.5;" x1="263" x2="3036" y1="292" y2="292"/>
  <text style="stroke:none;fill:black;font-family:sans-serif;font-size:13;font-weight:bold;" transform="matrix(1 0 0 1 263 322)">Weight/Scale Variations</text>
  <text style="stroke:none;fill:black;font-family:sans-serif;font-size:13;text-anchor:middle;" transform="matrix(1 0 0 1 559.711 322)">Ultralight</text>
  <text style="stroke:none;fill:black;font-family:sans-serif;font-size:13;text-anchor:middle;" transform="matrix(1 0 0 1 856.422 322)">Thin</text>
  <text style="stroke:none;fill:black;font-family:sans-serif;font-size:13;text-anchor:middle;" transform="matrix(1 0 0 1 1153.13 322)">Light</text>
  <text style="stroke:none;fill:black;font-family:sans-serif;font-size:13;text-anchor:middle;" transform="matrix(1 0 0 1 1449.84 322)">Regular</text>
  <text style="stroke:none;fill:black;font-family:sans-serif;font-size:13;text-anchor:middle;" transform="matrix(1 0 0 1 1746.56 322)">Medium</text>
  <text style="stroke:none;fill:black;font-family:sans-serif;font-size:13;text-anchor:middle;" transform="matrix(1 0 0 1 2043.27 322)">Semibold</text>
  <text style="stroke:none;fill:black;font-family:sans-serif;font-size:13;text-anchor:middle;" transform="matrix(1 0 0 1 2339.98 322)">Bold</text>
  <text style="stroke:none;fill:black;font-family:sans-serif;font-size:13;text-anchor:middle;" transform="matrix(1 0 0 1 2636.69 322)">Heavy</text>
  <text style="stroke:none;fill:black;font-family:sans-serif;font-size:13;text-anchor:middle;" transform="matrix(1 0 0 1 2933.4 322)">Black</text>
  <line style="fill:none;stroke:black;opacity:1;stroke-width:0.5;" x1="263" x2="3036" y1="1903" y2="1903"/>
  <g transform="matrix(0.2 0 0 0.2 263 1933)">
   <path d="m46.2402 4.15039c21.7773 0 39.4531-17.627 39.4531-39.4043s-17.6758-39.4043-39.4531-39.4043c-21.7285 0-39.4043 17.627-39.4043 39.4043s17.6758 39.4043 39.4043 39.4043Zm0-7.42188c-17.6758 0-31.9336-14.3066-31.9336-31.9824s14.2578-31.9824 31.9336-31.9824 31.9824 14.3066 31.9824 31.9824-14.3066 31.9824-31.9824 31.9824Zm3.61328-17.7734v-28.4668c0-2.24609-1.46484-3.75977-3.71094-3.75977-2.14844 0-3.61328 1.51367-3.61328 3.75977v28.4668c0 2.19727 1.46484 3.71094 3.61328 3.71094 2.24609 0 3.71094-1.51367 3.71094-3.71094Zm-17.8223-10.5957h28.418c2.19727 0 3.71094-1.46484 3.71094-3.61328 0-2.19727-1.51367-3.71094-3.71094-3.71094h-28.418c-2.24609 0-3.75977 1.51367-3.75977 3.71094 0 2.14844 1.51367 3.61328 3.75977 3.61328Z"/>
  </g>
  <g transform="matrix(0.2 0 0 0.2 281.506 1933)">
   <path d="m58.5449 14.5508c27.4902 0 49.8047-22.3145 49.8047-49.8047s-22.3145-49.8047-49.8047-49.8047-49.8047 22.3145-49.8047 49.8047 22.3145 49.8047 49.8047 49.8047Zm0-8.30078c-22.9492 0-41.5039-18.5547-41.5039-41.5039s18.5547-41.5039 41.5039-41.5039 41.5039 18.5547 41.5039 41.5039-18.5547 41.5039-41.5039 41.5039Zm4.05273-23.0957v-36.9141c0-2.49023-1.70898-4.19922-4.15039-4.19922-2.39258 0-4.05273 1.70898-4.05273 4.19922v36.9141c0 2.44141 1.66016 4.15039 4.05273 4.15039 2.44141 0 4.15039-1.66016 4.15039-4.15039Zm-22.5586-14.4043h36.9629c2.44141 0 4.15039-1.61133 4.15039-4.00391 0-2.44141-1.70898-4.15039-4.15039-4.15039h-36.9629c-2.49023 0-4.15039 1.70898-4.15039 4.15039 0 2.39258 1.66016 4.00391 4.15039 4.00391Z"/>
  </g>
  <g transform="matrix(0.2 0 0 0.2 304.924 1933)">
   <path d="m74.8535 28.3203c35.1074 0 63.623-28.4668 63.623-63.5742s-28.5156-63.623-63.623-63.623-63.5742 28.5156-63.5742 63.623 28.4668 63.5742 63.5742 63.5742Zm0-9.08203c-30.127 0-54.4922-24.3652-54.4922-54.4922s24.3652-54.4922 54.4922-54.4922 54.4922 24.3652 54.4922 54.4922-24.3652 54.4922-54.4922 54.4922Zm4.44336-30.3223v-48.4863c0-2.73438-1.85547-4.63867-4.54102-4.63867-2.58789 0-4.44336 1.9043-4.44336 4.63867v48.4863c0 2.68555 1.85547 4.58984 4.44336 4.58984 2.68555 0 4.54102-1.85547 4.54102-4.58984Zm-28.7109-19.7754h48.4863c2.68555 0 4.58984-1.80664 4.58984-4.39453 0-2.73438-1.85547-4.58984-4.58984-4.58984h-48.4863c-2.73438 0-4.58984 1.85547-4.58984 4.58984 0 2.58789 1.85547 4.39453 4.58984 4.39453Z"/>
  </g>
  <text style="stroke:none;fill:black;font-family:sans-serif;font-size:13;font-weight:bold;" transform="matrix(1 0 0 1 263 1953)">Design Variations</text>
  <text style="stroke:none;fill:black;font-family:sans-serif;font-size:13;" transform="matrix(1 0 0 1 263 1971)">Symbols are supported in up to nine weights and three scales.</text>
  <text style="stroke:none;fill:black;font-family:sans-serif;font-size:13;" transform="matrix(1 0 0 1 263 1989)">For optimal layout with text and other symbols, vertically align</text>
  <text style="stroke:none;fill:black;font-family:sans-serif;font-size:13;" transform="matrix(1 0 0 1 263 2007)">symbols with the adjacent text.</text>
  <line style="fill:none;stroke:#00AEEF;stroke-width:0.5;opacity:1.0;" x1="776" x2="776" y1="1919" y2="1933"/>
  <g transform="matrix(0.2 0 0 0.2 776 1933)">
   <path d="m16.5527 0.78125c2.58789 0 3.85742-0.976562 4.78516-3.71094l20.5566-57.5195h0.244141l20.6055 57.5195c0.927734 2.73438 2.19727 3.71094 4.73633 3.71094 2.58789 0 4.24805-1.5625 4.24805-4.00391 0-0.830078-0.146484-1.61133-0.537109-2.63672l-22.9004-60.9863c-1.12305-2.97852-3.125-4.49219-6.25-4.49219-3.02734 0-5.07812 1.46484-6.15234 4.44336l-22.9004 61.084c-0.390625 1.02539-0.537109 1.80664-0.537109 2.63672 0 2.44141 1.5625 3.95508 4.10156 3.95508Zm10.2051-20.9473h30.6641c2.00195 0 3.66211-1.66016 3.66211-3.66211 0-2.05078-1.66016-3.66211-3.66211-3.66211h-30.6641c-2.00195 0-3.66211 1.61133-3.66211 3.66211 0 2.00195 1.66016 3.66211 3.66211 3.66211Z"/>
  </g>
  <line style="fill:none;stroke:#00AEEF;stroke-width:0.5;opacity:1.0;" x1="792.836" x2="792.836" y1="1919" y2="1933"/>
  <text style="stroke:none;fill:black;font-family:sans-serif;font-size:13;font-weight:bold;" transform="matrix(1 0 0 1 776 1953)">Margins</text>
  <text style="stroke:none;fill:black;font-family:sans-serif;font-size:13;" transform="matrix(1 0 0 1 776 1971)">Leading and trailing margins on the left and right side of each symbol</text>
  <text style="stroke:none;fill:black;font-family:sans-serif;font-size:13;" transform="matrix(1 0 0 1 776 1989)">can be adjusted by modifying the x-location of the margin guidelines.</text>
  <text style="stroke:none;fill:black;font-family:sans-serif;font-size:13;" transform="matrix(1 0 0 1 776 2007)">Modifications are automatically applied proportionally to all</text>
  <text style="stroke:none;fill:black;font-family:sans-serif;font-size:13;" transform="matrix(1 0 0 1 776 2025)">scales and weights.</text>
  <g transform="matrix(0.2 0 0 0.2 1289 1933)">
   <path d="m14.209 13.1348 7.86133 7.86133c4.29688 4.39453 9.32617 4.10156 13.8672-1.02539l60.6934-68.2129-4.88281-4.88281-60.2539 67.6758c-1.80664 1.95312-3.4668 2.44141-5.81055 0.0976562l-5.17578-5.12695c-2.29492-2.29492-1.80664-3.95508 0.195312-5.81055l67.4805-62.1582-4.88281-4.83398-68.0664 62.5977c-4.98047 4.58984-5.32227 9.47266-1.02539 13.8184Zm44.873-97.4609c-2.05078 2.00195-2.24609 4.88281-1.07422 6.78711 1.12305 1.80664 3.4668 3.02734 6.5918 2.24609 5.85938-1.66016 12.5977-2.39258 18.8965 0.927734l-2.68555 7.12891c-1.61133 4.00391-0.732422 6.88477 1.70898 9.42383l10.2539 10.3027c2.34375 2.39258 4.54102 2.44141 7.08008 1.95312l4.44336-0.732422 2.58789 2.53906-0.195312 2.24609c-0.0976562 2.29492 0.537109 4.29688 2.7832 6.49414l3.36914 3.32031c2.29492 2.29492 5.51758 2.49023 7.8125 0.195312l12.9883-13.0371c2.29492-2.34375 2.14844-5.37109-0.195312-7.66602l-3.41797-3.41797c-2.19727-2.19727-4.05273-3.02734-6.34766-2.88086l-2.34375 0.244141-2.44141-2.44141 1.02539-4.6875c0.634766-2.73438-0.244141-4.98047-2.88086-7.61719l-11.2793-11.1816c-12.9395-12.8418-35.5957-11.0352-46.6797-0.146484Zm7.08008 2.05078c8.78906-6.39648 25.9766-5.66406 33.6914 1.95312l12.3047 12.207c1.02539 1.02539 1.2207 1.80664 0.927734 3.32031l-1.46484 6.64062 6.73828 6.68945 4.39453-0.244141c1.12305-0.0488281 1.51367 0.0488281 2.34375 0.878906l2.53906 2.49023-10.8398 10.8398-2.49023-2.49023c-0.830078-0.878906-0.976562-1.2207-0.927734-2.39258l0.292969-4.3457-6.68945-6.73828-6.83594 1.17188c-1.41602 0.292969-2.05078 0.195312-3.17383-0.878906l-8.93555-8.88672c-1.07422-1.02539-1.17188-1.70898-0.488281-3.36914l4.58984-11.4746c-6.10352-6.34766-17.041-7.51953-25.5859-4.58984-0.683594 0.244141-0.927734-0.390625-0.390625-0.78125Z"/>
  </g>
  <text style="stroke:none;fill:black;font-family:sans-serif;font-size:13;font-weight:bold;" transform="matrix(1 0 0 1 1289 1953)">Exporting</text>
  <text style="stroke:none;fill:black;font-family:sans-serif;font-size:13;" transform="matrix(1 0 0 1 1289 1971)">Symbols should be outlined when exporting to ensure the</text>
  <text style="stroke:none;fill:black;font-family:sans-serif;font-size:13;" transform="matrix(1 0 0 1 1289 1989)">design is preserved when submitting to Xcode.</text>
  <text id="template-version" style="stroke:none;fill:black;font-family:sans-serif;font-size:13;text-anchor:end;" transform="matrix(1 0 0 1 3036 1933)">Template v.7.0</text>
  <text style="stroke:none;fill:black;font-family:sans-serif;font-size:13;text-anchor:end;" transform="matrix(1 0 0 1 3036 1951)">Requires Xcode 26 or greater</text>
  <text id="descriptive-name" style="stroke:none;fill:black;font-family:sans-serif;font-size:13;text-anchor:end;" transform="matrix(1 0 0 1 3036 1969)">Generated from mich.bibendum</text>
  <text style="stroke:none;fill:black;font-family:sans-serif;font-size:13;text-anchor:end;" transform="matrix(1 0 0 1 3036 1987)">Typeset at 100.0 points</text>
  <text style="stroke:none;fill:black;font-family:sans-serif;font-size:13;" transform="matrix(1 0 0 1 263 726)">Small</text>
  <text style="stroke:none;fill:black;font-family:sans-serif;font-size:13;" transform="matrix(1 0 0 1 263 1156)">Medium</text>
  <text style="stroke:none;fill:black;font-family:sans-serif;font-size:13;" transform="matrix(1 0 0 1 263 1586)">Large</text>
 </g>
 <g id="Guides">
  <g id="H-reference" style="fill:#27AAE1;stroke:none;" transform="matrix(1 0 0 1 339 696)">
   <path d="M0.993654 0L3.63775 0L29.3281-67.1323L30.0303-67.1323L30.0303-70.459L28.1226-70.459ZM11.6885-24.4799L46.9815-24.4799L46.2315-26.7285L12.4385-26.7285ZM55.1196 0L57.7637 0L30.6382-70.459L29.4326-70.459L29.4326-67.1323Z"/>
  </g>
  <line id="Baseline-S" style="fill:none;stroke:#27AAE1;opacity:1;stroke-width:0.5;" x1="263" x2="3036" y1="696" y2="696"/>
  <line id="Capline-S" style="fill:none;stroke:#27AAE1;opacity:1;stroke-width:0.5;" x1="263" x2="3036" y1="625.541" y2="625.541"/>
  <g id="H-reference" style="fill:#27AAE1;stroke:none;" transform="matrix(1 0 0 1 339 1126)">
   <path d="M0.993654 0L3.63775 0L29.3281-67.1323L30.0303-67.1323L30.0303-70.459L28.1226-70.459ZM11.6885-24.4799L46.9815-24.4799L46.2315-26.7285L12.4385-26.7285ZM55.1196 0L57.7637 0L30.6382-70.459L29.4326-70.459L29.4326-67.1323Z"/>
  </g>
  <line id="Baseline-M" style="fill:none;stroke:#27AAE1;opacity:1;stroke-width:0.5;" x1="263" x2="3036" y1="1126" y2="1126"/>
  <line id="Capline-M" style="fill:none;stroke:#27AAE1;opacity:1;stroke-width:0.5;" x1="263" x2="3036" y1="1055.54" y2="1055.54"/>
  <g id="H-reference" style="fill:#27AAE1;stroke:none;" transform="matrix(1 0 0 1 339 1556)">
   <path d="M0.993654 0L3.63775 0L29.3281-67.1323L30.0303-67.1323L30.0303-70.459L28.1226-70.459ZM11.6885-24.4799L46.9815-24.4799L46.2315-26.7285L12.4385-26.7285ZM55.1196 0L57.7637 0L30.6382-70.459L29.4326-70.459L29.4326-67.1323Z"/>
  </g>
  <line id="Baseline-L" style="fill:none;stroke:#27AAE1;opacity:1;stroke-width:0.5;" x1="263" x2="3036" y1="1556" y2="1556"/>
  <line id="Capline-L" style="fill:none;stroke:#27AAE1;opacity:1;stroke-width:0.5;" x1="263" x2="3036" y1="1485.54" y2="1485.54"/>
  <line id="right-margin-Black-S" style="fill:none;stroke:#00AEEF;stroke-width:0.5;opacity:1.0;" x1="2986.13" x2="2986.13" y1="600.785" y2="720.121"/>
  <line id="left-margin-Black-S" style="fill:none;stroke:#00AEEF;stroke-width:0.5;opacity:1.0;" x1="2880.67" x2="2880.67" y1="600.785" y2="720.121"/>
  <line id="right-margin-Regular-S" style="fill:none;stroke:#00AEEF;stroke-width:0.5;opacity:1.0;" x1="1499.75" x2="1499.75" y1="600.785" y2="720.121"/>
  <line id="left-margin-Regular-S" style="fill:none;stroke:#00AEEF;stroke-width:0.5;opacity:1.0;" x1="1399.94" x2="1399.94" y1="600.785" y2="720.121"/>
  <line id="right-margin-Ultralight-S" style="fill:none;stroke:#00AEEF;stroke-width:0.5;opacity:1.0;" x1="606.412" x2="606.412" y1="600.785" y2="720.121"/>
  <line id="left-margin-Ultralight-S" style="fill:none;stroke:#00AEEF;stroke-width:0.5;opacity:1.0;" x1="513.01" x2="513.01" y1="600.785" y2="720.121"/>
 </g>
 <g id="Symbols">
  <g id="Black-S" transform="matrix(1 0 0 1 2880.67 696)">
   <path class="monochrome-0 multicolor-0:systemRedColor hierarchical-0:primary SFSymbolsPreviewWireframe" d="M51.05-78.909C48.69-78.688 45.69-77.753 43.79-76.621C42.14-75.637 40.05-73.693 38.99-72.193C38.48-71.455 37.98-71.086 37-70.741C34.93-70.003 31.41-68.207 29.47-66.854C27.58-65.55 24.08-62.056 22.83-60.236C21.67-58.563 19.92-54.971 19.31-53.003C18.3-49.731 18.05-48.058 17.91-43.777L17.76-39.471L16.23-37.847C9.1-30.27 7.47-21.659 11.46-12.802C13.23-8.915 17.46-3.674 21.42-0.476C23 0.779 23.42 1 24.25 1C26.12 1 27.43-0.206 27.43-1.952C27.43-3.084 26.89-3.921 25.48-4.978C23.66-6.356 20.05-10.243 18.72-12.236C16.45-15.656 15.37-18.805 15.37-22.102C15.37-26.579 17.46-30.614 22.09-35.092L24.43-37.355L24.16-38.413C23.79-39.865 23.81-46.04 24.2-47.836C25.95-56.201 30.5-61.614 38.4-64.763C39.61-65.255 41.82-65.894 43.32-66.165C47.61-66.977 47.26-66.78 46.28-67.74C44.51-69.388 44.68-70.692 46.74-71.602C49.08-72.636 55.7-72.857 58.53-71.971C59.88-71.553 60.89-70.741 60.89-70.028C60.89-69.363 60.01-68.01 59.12-67.297L58.38-66.731L61.29-66.288C67.46-65.402 72.14-63.139 75.95-59.203C80.48-54.553 82.77-46.95 81.81-39.717L81.49-37.355L83.88-34.994C88.21-30.713 90.15-27.072 90.35-22.864C90.54-19.125 89.58-16.025 87.05-12.212C85.77-10.268 81.61-5.84 80.06-4.757C78.93-3.97 78.36-3.035 78.36-1.952C78.36-0.206 79.67 1 81.54 1C82.35 1 82.79 0.779 84.32-0.427C89.93-4.905 94.26-11.178 95.88-17.157C96.55-19.592 96.6-24.168 96.01-26.629C95.07-30.393 92.73-34.502 89.66-37.749L88.03-39.471L87.89-43.777C87.79-46.237 87.57-48.82 87.35-49.804C85.33-58.784 80.28-65.279 72.26-69.216C71.08-69.806 69.53-70.495 68.82-70.741C67.73-71.11 67.34-71.43 66.43-72.685C63.11-77.187 57.42-79.5 51.05-78.909ZM38.75-57.407C35.99-56.668 33.56-54.454 31.98-51.28C30.6-48.476 30.26-46.827 30.26-42.916C30.26-39.127 30.65-37.282 32.13-34.379C33.11-32.435 35.45-30.024 37.2-29.138C38.45-28.474 38.87-28.4 40.84-28.4C42.81-28.4 43.23-28.474 44.48-29.138C46.23-30.024 48.57-32.435 49.55-34.379C51.03-37.282 51.42-39.127 51.42-42.916C51.42-46.827 51.08-48.476 49.7-51.28C48.1-54.503 45.66-56.668 42.81-57.431C41.06-57.874 40.49-57.874 38.75-57.407ZM43.35-54.577C47.8-52.412 50.29-44.515 48.44-38.364C48.1-37.208 46.74-34.182 46.55-34.182C46.52-34.182 46.5-35.363 46.47-36.839C46.47-38.955 46.35-39.742 45.93-40.849C45.27-42.497 43.87-44.22 42.76-44.662C41.65-45.13 40-45.081 38.99-44.564C37.84-43.949 36.43-42.03 35.89-40.357C35.43-38.905 35.28-36.002 35.62-34.305C35.79-33.37 35.79-33.345 35.4-33.813C35.2-34.083 34.71-34.92 34.32-35.658C30.92-42.301 32.96-51.92 38.3-54.577C39.73-55.266 41.9-55.266 43.35-54.577ZM64.26-57.53C62-56.988 59.91-55.488 58.29-53.249C56.07-50.124 55.09-46.409 55.31-41.956C55.58-36.15 58.14-31.426 62.22-29.212C63.6-28.474 63.9-28.4 65.94-28.4C67.91-28.4 68.32-28.474 69.58-29.138C71.33-30.024 73.66-32.435 74.65-34.379C76.13-37.282 76.52-39.127 76.52-42.916C76.52-45.45 76.4-46.778 76.08-47.959C74.7-53.003 71.45-56.644 67.49-57.554C66.23-57.825 65.52-57.825 64.26-57.53ZM68.45-54.602C72.43-52.806 75.02-45.942 73.94-40.062C73.62-38.34 72.58-35.461 71.97-34.674L71.52-34.083L71.65-36.027C71.97-40.726 69.68-44.687 66.48-44.958C62.49-45.277 59.74-40.259 60.7-34.428C60.89-33.394 60.87-33.345 60.5-33.813C60.28-34.083 59.81-34.92 59.42-35.658C56.02-42.301 58.06-51.92 63.4-54.577C64.78-55.241 67.02-55.266 68.45-54.602ZM64.41-24.562C60.8-22.791 57.45-16 56.34-8.275L56.19-7.119L53.54-7.119C50.19-7.119 47.34-7.611 44.26-8.718C41.06-9.85 39.44-10.834 37.37-12.974C35.84-14.524 35.5-14.746 34.74-14.746C34.1-14.746 33.73-14.573 33.36-14.106C32.35-12.827 32.79-11.843 35.38-9.431C42.83-2.469 57.94-1.116 69.19-6.381C73.52-8.398 77.87-11.892 77.87-13.319C77.87-14.352 77.5-14.893 76.64-15.213C75.66-15.533 75.31-15.385 73.57-13.835C72.75-13.122 72.02-12.531 71.94-12.531C71.87-12.531 71.72-13.835 71.65-15.435C71.3-22.618 68.25-26.456 64.41-24.562Z"/>
  </g>
  <g id="Regular-S" transform="matrix(1 0 0 1 1399.94 696)">
   <path class="monochrome-0 multicolor-0:systemRedColor hierarchical-0:primary SFSymbolsPreviewWireframe" d="M48.78-76.909C46.42-76.688 43.42-75.753 41.52-74.621C39.87-73.637 37.78-71.693 36.72-70.193C36.21-69.455 35.71-69.086 34.73-68.741C32.66-68.003 29.14-66.207 27.2-64.854C25.31-63.55 21.81-60.056 20.56-58.236C19.4-56.563 17.65-52.971 17.04-51.003C16.03-47.731 15.78-46.058 15.64-41.777L15.49-37.471L13.96-35.847C6.83-28.27 5.2-19.659 9.19-10.802C10.96-6.915 15.19-1.674 19.15 1.524C20.73 2.779 21.15 3 21.98 3C23.85 3 25.16 1.794 25.16 0.048C25.16-1.084 24.62-1.921 23.21-2.978C21.39-4.356 17.78-8.243 16.45-10.236C14.18-13.656 13.1-16.805 13.1-20.102C13.1-24.579 15.19-28.614 19.82-33.092L22.16-35.355L21.89-36.413C21.52-37.865 21.54-44.04 21.93-45.836C23.68-54.201 28.23-59.614 36.13-62.763C37.34-63.255 39.55-63.894 41.05-64.165C45.34-64.977 44.99-64.78 44.01-65.74C42.24-67.388 42.41-68.692 44.47-69.602C46.81-70.636 53.43-70.857 56.26-69.971C57.61-69.553 58.62-68.741 58.62-68.028C58.62-67.363 57.74-66.01 56.85-65.297L56.11-64.731L59.02-64.288C65.19-63.402 69.87-61.139 73.68-57.203C78.21-52.553 80.5-44.95 79.54-37.717L79.22-35.355L81.61-32.994C85.94-28.713 87.88-25.072 88.08-20.864C88.27-17.125 87.31-14.025 84.78-10.212C83.5-8.268 79.34-3.84 77.79-2.757C76.66-1.97 76.09-1.035 76.09 0.048C76.09 1.794 77.4 3 79.27 3C80.08 3 80.52 2.779 82.05 1.573C87.66-2.905 91.99-9.178 93.61-15.157C94.28-17.592 94.33-22.168 93.74-24.629C92.8-28.393 90.46-32.502 87.39-35.749L85.76-37.471L85.62-41.777C85.52-44.237 85.3-46.82 85.08-47.804C83.06-56.784 78.01-63.279 69.99-67.216C68.81-67.806 67.26-68.495 66.55-68.741C65.46-69.11 65.07-69.43 64.16-70.685C60.84-75.187 55.15-77.5 48.78-76.909ZM36.48-55.407C33.72-54.668 31.29-52.454 29.71-49.28C28.33-46.476 27.99-44.827 27.99-40.916C27.99-37.127 28.38-35.282 29.86-32.379C30.84-30.435 33.18-28.024 34.93-27.138C36.18-26.474 36.6-26.4 38.57-26.4C40.54-26.4 40.96-26.474 42.21-27.138C43.96-28.024 46.3-30.435 47.28-32.379C48.76-35.282 49.15-37.127 49.15-40.916C49.15-44.827 48.81-46.476 47.43-49.28C45.83-52.503 43.39-54.668 40.54-55.431C38.79-55.874 38.22-55.874 36.48-55.407ZM41.08-52.577C45.53-50.412 48.02-42.515 46.17-36.364C45.83-35.208 44.47-32.182 44.28-32.182C44.25-32.182 44.23-33.363 44.2-34.839C44.2-36.955 44.08-37.742 43.66-38.849C43-40.497 41.6-42.22 40.49-42.662C39.38-43.13 37.73-43.081 36.72-42.564C35.57-41.949 34.16-40.03 33.62-38.357C33.16-36.905 33.01-34.002 33.35-32.305C33.52-31.37 33.52-31.345 33.13-31.813C32.93-32.083 32.44-32.92 32.05-33.658C28.65-40.301 30.69-49.92 36.03-52.577C37.46-53.266 39.63-53.266 41.08-52.577ZM61.99-55.53C59.73-54.988 57.64-53.488 56.02-51.249C53.8-48.124 52.82-44.409 53.04-39.956C53.31-34.15 55.87-29.426 59.95-27.212C61.33-26.474 61.63-26.4 63.67-26.4C65.64-26.4 66.05-26.474 67.31-27.138C69.06-28.024 71.39-30.435 72.38-32.379C73.86-35.282 74.25-37.127 74.25-40.916C74.25-43.45 74.13-44.778 73.81-45.959C72.43-51.003 69.18-54.644 65.22-55.554C63.96-55.825 63.25-55.825 61.99-55.53ZM66.18-52.602C70.16-50.806 72.75-43.942 71.67-38.062C71.35-36.34 70.31-33.461 69.7-32.674L69.25-32.083L69.38-34.027C69.7-38.726 67.41-42.687 64.21-42.958C60.22-43.277 57.47-38.259 58.43-32.428C58.62-31.394 58.6-31.345 58.23-31.813C58.01-32.083 57.54-32.92 57.15-33.658C53.75-40.301 55.79-49.92 61.13-52.577C62.51-53.241 64.75-53.266 66.18-52.602ZM62.14-22.562C58.53-20.791 55.18-14 54.07-6.275L53.92-5.119L51.27-5.119C47.92-5.119 45.07-5.611 41.99-6.718C38.79-7.85 37.17-8.834 35.1-10.974C33.57-12.524 33.23-12.746 32.47-12.746C31.83-12.746 31.46-12.573 31.09-12.106C30.08-10.827 30.52-9.843 33.11-7.431C40.56-0.469 55.67 0.884 66.92-4.381C71.25-6.398 75.6-9.892 75.6-11.319C75.6-12.352 75.23-12.893 74.37-13.213C73.39-13.533 73.04-13.385 71.3-11.835C70.48-11.122 69.75-10.531 69.67-10.531C69.6-10.531 69.45-11.835 69.38-13.435C69.03-20.618 65.98-24.456 62.14-22.562Z"/>
  </g>
  <g id="Ultralight-S" transform="matrix(1 0 0 1 513.01 696)">
   <path class="monochrome-0 multicolor-0:systemRedColor hierarchical-0:primary SFSymbolsPreviewWireframe" d="M44.711-78.909C42.349-78.688 39.347-77.753 37.452-76.621C35.803-75.637 33.712-73.693 32.654-72.193C32.137-71.455 31.645-71.086 30.66-70.741C28.593-70.003 25.075-68.207 23.131-66.854C21.236-65.55 17.742-62.056 16.487-60.236C15.33-58.563 13.583-54.971 12.968-53.003C11.959-49.731 11.713-48.058 11.566-43.777L11.418-39.471L9.892-37.847C2.756-30.27 1.132-21.659 5.119-12.802C6.89-8.915 11.123-3.674 15.084-0.476C16.659 0.779 17.078 1 17.914 1C19.784 1 21.088-0.206 21.088-1.952C21.088-3.084 20.547-3.921 19.145-4.978C17.324-6.356 13.706-10.243 12.378-12.236C10.114-15.656 9.031-18.805 9.031-22.102C9.031-26.579 11.123-30.614 15.749-35.092L18.086-37.355L17.816-38.413C17.447-39.865 17.471-46.04 17.865-47.836C19.612-56.201 24.164-61.614 32.063-64.763C33.269-65.255 35.483-65.894 36.984-66.165C41.266-66.977 40.921-66.78 39.937-67.74C38.165-69.388 38.338-70.692 40.405-71.602C42.742-72.636 49.362-72.857 52.191-71.971C53.545-71.553 54.554-70.741 54.554-70.028C54.554-69.363 53.668-68.01 52.782-67.297L52.044-66.731L54.947-66.288C61.124-65.402 65.799-63.139 69.613-59.203C74.14-54.553 76.429-46.95 75.469-39.717L75.149-37.355L77.536-34.994C81.867-30.713 83.811-27.072 84.008-22.864C84.205-19.125 83.245-16.025 80.71-12.212C79.431-10.268 75.272-5.84 73.722-4.757C72.59-3.97 72.024-3.035 72.024-1.952C72.024-0.206 73.328 1 75.199 1C76.011 1 76.454 0.779 77.979-0.427C83.589-4.905 87.92-11.178 89.544-17.157C90.209-19.592 90.258-24.168 89.667-26.629C88.732-30.393 86.395-34.502 83.319-37.749L81.695-39.471L81.547-43.777C81.449-46.237 81.227-48.82 81.006-49.804C78.988-58.784 73.944-65.279 65.922-69.216C64.741-69.806 63.19-70.495 62.477-70.741C61.394-71.11 61.001-71.43 60.09-72.685C56.768-77.187 51.084-79.5 44.711-78.909ZM32.408-57.407C29.652-56.668 27.216-54.454 25.641-51.28C24.263-48.476 23.918-46.827 23.918-42.916C23.918-39.127 24.312-37.282 25.788-34.379C26.773-32.435 29.11-30.024 30.857-29.138C32.112-28.474 32.531-28.4 34.499-28.4C36.468-28.4 36.886-28.474 38.141-29.138C39.888-30.024 42.226-32.435 43.21-34.379C44.686-37.282 45.08-39.127 45.08-42.916C45.08-46.827 44.735-48.476 43.358-51.28C41.758-54.503 39.322-56.668 36.468-57.431C34.721-57.874 34.155-57.874 32.408-57.407ZM37.009-54.577C41.463-52.412 43.948-44.515 42.103-38.364C41.758-37.208 40.405-34.182 40.208-34.182C40.183-34.182 40.159-35.363 40.134-36.839C40.134-38.955 40.011-39.742 39.593-40.849C38.928-42.497 37.526-44.22 36.418-44.662C35.311-45.13 33.662-45.081 32.654-44.564C31.497-43.949 30.094-42.03 29.553-40.357C29.086-38.905 28.938-36.002 29.282-34.305C29.455-33.37 29.455-33.345 29.061-33.813C28.864-34.083 28.372-34.92 27.978-35.658C24.583-42.301 26.625-51.92 31.965-54.577C33.392-55.266 35.557-55.266 37.009-54.577ZM57.925-57.53C55.661-56.988 53.569-55.488 51.945-53.249C49.731-50.124 48.746-46.409 48.968-41.956C49.239-36.15 51.798-31.426 55.882-29.212C57.26-28.474 57.556-28.4 59.598-28.4C61.566-28.4 61.985-28.474 63.24-29.138C64.987-30.024 67.324-32.435 68.309-34.379C69.785-37.282 70.179-39.127 70.179-42.916C70.179-45.45 70.056-46.778 69.736-47.959C68.358-53.003 65.11-56.644 61.148-57.554C59.893-57.825 59.18-57.825 57.925-57.53ZM62.108-54.602C66.094-52.806 68.678-45.942 67.595-40.062C67.275-38.34 66.242-35.461 65.627-34.674L65.184-34.083L65.307-36.027C65.627-40.726 63.338-44.687 60.139-44.958C56.153-45.277 53.397-40.259 54.357-34.428C54.554-33.394 54.529-33.345 54.16-33.813C53.938-34.083 53.471-34.92 53.077-35.658C49.681-42.301 51.724-51.92 57.063-54.577C58.441-55.241 60.681-55.266 62.108-54.602ZM58.072-24.562C54.455-22.791 51.109-16 50.001-8.275L49.854-7.119L47.196-7.119C43.85-7.119 40.995-7.611 37.919-8.718C34.721-9.85 33.097-10.834 31.03-12.974C29.504-14.524 29.159-14.746 28.397-14.746C27.757-14.746 27.388-14.573 27.019-14.106C26.01-12.827 26.453-11.843 29.036-9.431C36.492-2.469 51.601-1.116 62.846-6.381C67.177-8.398 71.532-11.892 71.532-13.319C71.532-14.352 71.163-14.893 70.302-15.213C69.318-15.533 68.973-15.385 67.226-13.835C66.414-13.122 65.676-12.531 65.602-12.531C65.528-12.531 65.38-13.835 65.307-15.435C64.962-22.618 61.911-26.456 58.072-24.562Z"/>
  </g>
 </g>
</svg>
